{"glyphs":{":":{"x_min":0,"x_max":153,"ha":153,"o":"m 76 326 b 86 329 97 337 96 348 b 96 361 95 373 93 385 b 92 395 80 397 72 395 b 62 393 54 385 53 374 b 53 362 53 350 53 337 b 54 326 68 324 76 326 z m 102 115 b 102 118 101 120 100 123 b 99 129 97 132 91 135 b 80 140 67 133 60 126 b 49 116 49 98 51 85 b 52 72 68 69 78 72 b 91 76 101 85 102 99 b 103 104 103 110 102 115 z"},"$":{"x_min":0,"x_max":488,"ha":488,"o":"m 431 73 b 414 126 364 161 323 194 b 311 203 300 213 289 222 b 293 329 298 436 304 543 b 333 530 357 508 369 476 b 377 458 414 476 407 494 b 389 542 351 570 306 582 b 309 631 312 681 315 730 b 316 748 282 737 281 721 b 278 677 275 632 273 587 b 241 589 208 584 179 573 b 138 558 97 528 73 491 b 44 445 45 393 63 342 b 95 251 174 187 248 130 b 245 49 242 -32 239 -113 b 203 -106 171 -82 155 -49 b 140 -20 138 13 141 44 b 144 70 146 112 169 127 b 186 138 170 157 154 148 b 114 123 106 73 103 30 b 99 -21 110 -71 148 -107 b 174 -133 205 -145 238 -147 b 237 -176 236 -205 235 -234 b 235 -255 275 -243 275 -224 b 276 -197 277 -171 277 -145 b 322 -138 365 -113 395 -77 b 430 -34 449 19 431 73 z m 254 253 b 238 268 224 283 209 299 b 176 336 142 386 137 436 b 132 486 164 531 212 547 b 231 553 251 554 270 552 b 264 452 259 353 254 253 z m 293 -110 b 288 -112 283 -113 278 -114 b 280 -41 282 31 285 103 b 317 80 352 53 361 14 b 372 -33 338 -96 293 -110 z"},"?":{"x_min":0,"x_max":455,"ha":455,"o":"m 307 666 b 233 687 146 656 96 599 b 68 566 52 524 50 481 b 49 445 56 397 98 389 b 115 386 138 414 114 419 b 80 426 87 492 93 515 b 101 550 120 582 149 604 b 200 644 283 648 312 579 b 337 521 311 446 291 389 b 267 325 237 264 209 201 b 177 130 145 52 140 -27 b 139 -51 171 -57 188 -54 b 210 -50 236 -34 241 -11 b 249 32 258 73 272 114 b 287 154 304 192 321 231 b 356 310 392 390 403 477 b 413 556 392 642 307 666 z m 212 -105 b 203 -93 177 -103 170 -113 b 155 -132 154 -159 156 -183 b 160 -220 230 -198 225 -165 b 223 -145 224 -121 212 -105 z"},"<":{"x_min":0,"x_max":395,"ha":395,"o":"m 330 233 b 300 251 260 256 226 263 b 207 268 189 273 172 279 b 187 290 203 300 218 310 b 246 328 287 346 307 373 b 316 385 311 398 295 397 b 259 396 221 371 189 356 b 153 339 117 320 81 301 b 64 292 36 262 59 242 b 90 216 129 204 168 194 b 206 185 244 175 282 165 b 316 155 373 207 330 233 z"},"'":{"x_min":0,"x_max":205,"ha":205,"o":"m 118 703 b 94 702 71 686 64 663 b 50 623 43 575 59 535 b 72 504 122 531 128 553 b 138 591 142 631 154 669 b 161 691 137 704 118 703 z"},"=":{"x_min":0,"x_max":456,"ha":456,"o":"m 391 313 b 342 337 273 326 221 321 b 192 319 163 316 135 312 b 108 308 74 305 57 283 b 53 278 49 270 52 263 b 63 244 91 248 110 248 b 138 248 166 250 195 251 b 221 252 248 253 274 253 b 302 254 331 250 359 253 b 383 255 429 294 391 313 z m 362 224 b 307 222 252 219 197 214 b 154 211 83 212 55 175 b 49 167 47 157 57 152 b 75 142 99 149 118 151 b 143 154 168 155 193 156 b 244 159 296 161 348 164 b 365 164 387 178 391 196 b 395 215 379 225 362 224 z"},"a":{"x_min":0,"x_max":449,"ha":449,"o":"m 443 243 b 431 197 418 150 398 105 b 388 83 377 62 363 42 b 358 33 346 14 333 16 b 325 18 321 29 318 36 b 310 55 310 76 308 96 b 306 123 307 149 307 176 b 308 229 317 281 321 334 b 323 360 286 366 268 363 b 254 361 238 354 227 344 b 218 351 207 356 194 360 b 149 372 103 357 68 330 b -5 277 -48 174 -28 85 b -18 41 8 3 56 -3 b 97 -9 131 18 153 51 b 171 79 183 109 193 141 b 194 128 195 116 196 104 b 203 47 217 -30 288 -36 b 349 -41 393 17 418 65 b 448 121 465 184 481 246 b 487 267 448 260 443 243 z m 152 138 b 142 109 131 80 113 55 b 104 43 98 49 89 60 b 82 70 77 83 74 95 b 63 151 79 208 104 258 b 113 276 126 300 147 304 b 166 308 186 300 201 286 b 181 238 169 188 152 138 z"},"L":{"x_min":0,"x_max":908,"ha":908,"o":"m 790 419 b 789 523 780 628 752 728 b 730 808 691 888 613 926 b 533 965 433 945 356 906 b 282 868 217 810 167 744 b 117 677 81 601 63 520 b 45 436 39 335 94 263 b 161 178 275 203 357 250 b 440 299 542 387 532 494 b 527 540 436 510 447 471 b 467 395 395 317 336 279 b 300 257 258 238 215 241 b 175 244 141 270 121 304 b 79 375 90 469 110 545 b 129 617 163 686 210 744 b 291 846 491 997 605 857 b 652 799 663 716 672 645 b 683 555 684 463 681 372 b 677 268 669 164 665 60 b 662 -7 660 -74 664 -142 b 629 -122 587 -116 546 -126 b 511 -134 474 -155 460 -189 b 446 -221 461 -250 497 -253 b 542 -255 587 -235 629 -220 b 643 -215 656 -210 670 -205 b 672 -220 674 -235 677 -250 b 689 -309 791 -272 788 -220 b 787 -203 786 -185 785 -168 b 876 -140 970 -119 1065 -112 b 1155 -106 1302 -107 1323 -222 b 1328 -245 1370 -230 1366 -211 b 1335 -47 1107 -69 987 -88 b 918 -99 850 -116 783 -136 b 779 -57 777 21 780 100 b 784 206 791 313 790 419 z m 618 -192 b 596 -199 505 -241 495 -207 b 489 -185 520 -166 536 -160 b 560 -152 586 -152 609 -159 b 625 -163 639 -170 652 -179 b 640 -183 629 -188 618 -192 z"},"3":{"x_min":0,"x_max":575,"ha":575,"o":"m 159 392 b 180 397 181 426 156 420 b 127 413 100 440 93 466 b 84 497 96 531 113 557 b 147 607 206 639 266 638 b 326 638 380 587 362 525 b 347 473 290 440 241 425 b 220 419 195 402 194 377 b 193 354 213 343 235 344 b 300 347 362 304 392 248 b 430 179 428 95 398 24 b 371 -40 317 -87 245 -81 b 205 -78 172 -61 155 -23 b 138 17 142 65 146 107 b 148 138 100 128 96 104 b 81 29 74 -62 146 -111 b 209 -155 299 -147 366 -116 b 519 -46 572 181 477 317 b 448 358 410 389 366 408 b 392 429 414 455 428 486 b 457 550 435 618 372 650 b 255 711 80 639 52 507 b 38 442 88 373 159 392 z"},";":{"x_min":0,"x_max":203,"ha":203,"o":"m 116 318 b 127 321 145 333 142 347 b 141 354 140 360 138 366 b 137 373 136 381 130 385 b 116 394 100 387 91 374 b 87 368 87 360 86 352 b 86 346 86 339 86 332 b 86 318 106 315 116 318 z m 73 95 b 69 71 65 46 59 21 b 53 -1 46 -21 53 -44 b 60 -69 106 -50 112 -33 b 130 10 145 53 152 100 b 159 148 78 133 73 95 z"},"J":{"x_min":0,"x_max":1103,"ha":1103,"o":"m 1134 955 b 1059 901 968 887 876 889 b 873 890 870 890 866 890 b 821 891 777 897 735 904 b 593 926 446 965 303 935 b 179 909 72 808 53 680 b 43 621 59 560 108 522 b 150 490 205 477 258 484 b 399 502 492 646 517 775 b 522 798 482 791 478 773 b 457 667 384 534 266 517 b 217 510 163 525 129 562 b 85 607 88 676 109 731 b 130 788 169 839 222 870 b 274 901 337 910 397 910 b 461 910 526 892 588 879 b 654 866 720 850 787 843 b 800 842 813 840 826 840 b 832 750 848 662 862 574 b 861 573 860 573 859 572 b 780 530 711 472 646 411 b 514 289 390 130 392 -60 b 393 -147 429 -226 506 -270 b 580 -312 669 -314 746 -283 b 934 -210 985 24 999 203 b 1008 317 1000 430 982 542 b 980 557 977 571 975 585 b 978 586 981 587 984 587 b 998 591 1040 605 1053 593 b 1068 579 1104 603 1088 619 b 1063 644 1011 627 981 620 b 977 619 973 618 969 617 b 963 648 956 678 948 709 b 937 754 924 797 907 839 b 998 845 1087 870 1160 931 b 1186 951 1156 971 1134 955 z m 871 64 b 855 -12 835 -93 792 -159 b 711 -283 500 -282 449 -131 b 422 -52 438 41 468 116 b 499 194 549 263 605 324 b 666 389 733 450 805 501 b 825 515 846 528 867 540 b 878 467 888 393 890 318 b 892 233 887 148 871 64 z"},"V":{"x_min":0,"x_max":1464,"ha":1464,"o":"m 493 710 b 517 681 554 668 588 658 b 680 631 775 615 870 608 b 965 600 1057 605 1151 611 b 1198 614 1244 620 1289 632 b 1293 633 1296 634 1298 637 b 1291 571 1278 507 1262 443 b 1223 291 1171 142 1094 5 b 1057 -61 1014 -123 964 -179 b 913 -235 852 -290 776 -308 b 616 -347 519 -163 470 -42 b 408 110 381 272 352 433 b 338 515 323 597 303 678 b 286 752 266 831 206 882 b 179 906 145 922 109 924 b 86 925 60 916 52 893 b 44 870 62 858 83 858 b 170 857 206 752 225 684 b 248 597 265 507 281 418 b 313 244 343 66 414 -98 b 476 -240 584 -392 759 -366 b 847 -353 925 -302 990 -244 b 1055 -185 1111 -119 1161 -48 b 1261 96 1329 260 1377 427 b 1426 597 1468 800 1394 968 b 1360 1044 1301 1105 1224 1136 b 1148 1167 1064 1174 983 1170 b 830 1162 673 1111 565 999 b 515 947 469 879 464 806 b 461 771 469 736 493 710 z m 569 938 b 657 1040 798 1088 930 1097 b 997 1101 1071 1098 1134 1073 b 1202 1045 1250 995 1276 927 b 1302 858 1306 779 1304 706 b 1303 694 1302 682 1301 670 b 1299 671 1296 671 1292 670 b 1204 657 1117 641 1027 639 b 938 637 849 644 761 658 b 717 665 674 675 631 686 b 595 695 556 706 531 734 b 478 795 525 887 569 938 z"},"\"":{"x_min":0,"x_max":257,"ha":257,"o":"m 56 655 b 51 629 49 601 51 575 b 53 554 54 531 73 520 b 87 512 107 526 107 540 b 110 580 122 621 131 659 b 140 703 64 689 56 655 z m 131 645 b 125 607 119 560 143 526 b 154 511 177 522 182 537 b 196 573 197 613 206 650 b 217 693 136 682 131 645 z"},"7":{"x_min":0,"x_max":442,"ha":442,"o":"m 60 582 b 100 574 139 588 177 599 b 217 610 256 621 297 622 b 319 622 345 620 345 592 b 345 573 333 553 325 535 b 309 496 296 455 280 415 b 263 369 245 322 228 275 b 213 274 198 272 182 269 b 160 264 159 235 185 240 b 196 242 207 243 218 244 b 183 141 155 36 144 -74 b 139 -135 236 -115 245 -68 b 261 23 276 112 300 201 b 304 217 308 232 313 247 b 331 247 348 248 366 250 b 387 252 402 285 374 283 b 357 281 340 280 322 279 b 341 341 360 402 375 465 b 388 517 420 638 340 652 b 300 659 257 649 219 640 b 175 629 122 603 76 612 b 59 615 37 587 60 582 z"},"S":{"x_min":0,"x_max":1265,"ha":1265,"o":"m 821 393 b 827 397 833 401 840 404 b 875 425 927 462 969 455 b 988 452 1013 483 987 488 b 945 495 906 475 869 456 b 830 436 792 413 756 388 b 741 386 727 384 713 381 b 618 365 527 336 432 319 b 401 313 353 303 323 319 b 290 336 291 381 300 411 b 317 474 353 531 393 583 b 434 575 476 570 516 569 b 692 564 887 622 1023 735 b 1077 780 1154 855 1145 932 b 1135 1018 1034 1045 962 1042 b 777 1035 609 919 476 800 b 430 759 387 715 346 669 b 300 688 257 714 218 745 b 186 770 156 800 129 830 b 101 861 27 813 57 776 b 119 700 205 645 299 610 b 294 603 288 596 283 589 b 234 521 170 427 186 338 b 204 242 312 235 390 249 b 482 265 571 293 662 313 b 626 282 593 248 563 212 b 506 145 458 68 434 -17 b 411 -98 407 -190 471 -253 b 529 -308 616 -327 694 -323 b 781 -320 863 -287 935 -239 b 1074 -146 1203 38 1154 212 b 1111 363 962 399 821 393 z m 625 825 b 695 881 768 931 851 966 b 920 995 1053 1033 1096 944 b 1118 899 1086 852 1058 817 b 1031 784 999 757 964 733 b 890 682 804 649 717 631 b 625 613 529 615 437 638 b 494 706 556 769 625 825 z m 784 -228 b 711 -252 629 -256 560 -219 b 479 -175 468 -80 489 2 b 512 90 569 167 629 234 b 659 267 692 298 727 327 b 799 339 874 343 942 318 b 1024 287 1068 215 1068 129 b 1068 -29 929 -182 784 -228 z"},"}":{"x_min":0,"x_max":439,"ha":439,"o":"m 379 343 b 288 429 290 564 264 678 b 251 734 232 805 178 836 b 138 860 80 867 53 820 b 40 799 77 800 87 815 b 96 828 117 823 125 812 b 131 804 134 794 137 785 b 147 761 156 737 163 712 b 177 660 182 606 189 553 b 199 472 214 387 262 321 b 247 309 235 295 227 277 b 203 228 210 167 214 114 b 217 58 223 2 219 -55 b 218 -83 214 -112 207 -139 b 203 -157 197 -182 174 -179 b 154 -177 113 -207 143 -223 b 189 -248 242 -216 269 -177 b 300 -131 307 -72 309 -17 b 311 41 305 99 302 157 b 300 183 298 211 301 237 b 303 249 306 260 312 270 b 313 271 313 272 314 273 b 315 273 316 273 317 272 b 348 265 414 310 379 343 z"},"Z":{"x_min":0,"x_max":1246,"ha":1246,"o":"m 1186 236 b 1153 258 1117 272 1079 283 b 1086 294 1092 306 1098 317 b 1128 378 1156 442 1174 507 b 1192 571 1204 645 1190 710 b 1161 839 1032 875 916 879 b 766 885 617 850 472 815 b 395 797 319 778 245 749 b 181 724 114 689 75 630 b 35 569 47 501 81 442 b 98 413 107 371 145 365 b 185 360 242 404 208 443 b 199 454 185 456 170 452 b 168 454 165 455 163 456 b 151 463 141 471 132 481 b 112 501 97 521 93 549 b 85 608 132 655 178 683 b 277 745 398 767 511 793 b 632 821 755 847 880 847 b 933 846 989 843 1039 822 b 1058 814 1078 804 1093 789 b 1112 769 1119 739 1120 712 b 1122 655 1107 598 1091 544 b 1074 489 1050 436 1024 385 b 1010 357 995 330 979 303 b 951 307 923 311 896 315 b 877 318 853 287 878 283 b 905 279 932 276 959 272 b 925 219 888 169 847 122 b 791 59 729 -2 659 -47 b 580 -29 499 -23 420 -38 b 376 -46 261 -86 292 -151 b 320 -208 415 -212 468 -210 b 567 -205 657 -165 736 -109 b 755 -115 772 -122 789 -128 b 900 -171 1010 -245 1036 -369 b 1043 -399 1099 -379 1092 -354 b 1060 -225 945 -149 829 -102 b 811 -95 792 -88 774 -81 b 802 -59 829 -35 855 -10 b 934 66 1005 155 1061 250 b 1093 241 1123 228 1151 209 b 1168 198 1204 223 1186 236 z m 607 -77 b 560 -101 509 -117 456 -120 b 432 -122 406 -122 382 -118 b 374 -116 364 -114 364 -104 b 364 -91 386 -83 396 -80 b 464 -56 539 -59 613 -74 b 611 -75 609 -76 607 -77 z"},"x":{"x_min":0,"x_max":437,"ha":437,"o":"m 435 240 b 418 181 397 122 363 71 b 350 50 327 16 298 20 b 274 23 252 47 239 66 b 210 110 194 165 181 216 b 204 239 227 262 248 286 b 273 314 299 343 309 380 b 315 402 276 395 271 378 b 260 338 224 305 196 275 b 188 267 181 259 172 251 b 161 301 152 352 138 402 b 131 426 90 423 73 416 b 51 408 26 387 28 360 b 34 288 49 217 72 148 b 29 103 -12 50 -22 -8 b -26 -32 13 -25 16 -6 b 24 37 53 75 80 108 b 81 110 83 112 84 114 b 109 54 146 -7 210 -27 b 275 -47 343 -11 383 40 b 428 98 453 172 472 242 b 477 263 440 256 435 240 z"},")":{"x_min":0,"x_max":395,"ha":395,"o":"m 253 598 b 215 668 161 736 82 761 b 66 766 36 742 57 734 b 99 718 116 682 133 643 b 150 606 165 568 178 529 b 206 447 227 363 235 276 b 242 192 238 107 221 23 b 208 -46 193 -152 124 -190 b 97 -205 100 -242 136 -233 b 215 -214 263 -148 291 -76 b 320 -1 336 76 342 156 b 354 306 327 466 253 598 z"},"&":{"x_min":0,"x_max":766,"ha":766,"o":"m 713 221 b 656 284 566 308 483 286 b 460 280 458 247 486 254 b 512 261 539 262 565 258 b 564 256 564 255 564 253 b 561 160 529 71 474 -4 b 422 -74 347 -138 254 -124 b 183 -114 136 -54 137 16 b 138 56 148 100 170 138 b 184 164 205 187 228 206 b 243 217 259 227 276 236 b 280 237 284 239 288 242 b 315 245 341 252 364 262 b 393 275 413 325 369 331 b 345 335 324 329 303 321 b 273 319 244 326 224 355 b 195 398 214 454 236 496 b 259 538 292 572 343 571 b 397 571 445 523 438 468 b 435 442 478 450 481 471 b 490 543 436 600 366 610 b 293 619 218 581 170 527 b 118 469 86 375 133 304 b 146 284 164 269 184 258 b 159 240 136 219 117 194 b 76 141 52 77 50 9 b 48 -77 105 -150 188 -170 b 294 -197 402 -135 472 -59 b 547 24 601 135 600 248 b 629 237 656 218 677 194 b 691 179 728 204 713 221 z"},"_":{"x_min":0,"x_max":513,"ha":513,"o":"m 445 -69 b 384 -55 318 -54 256 -56 b 226 -57 195 -59 165 -63 b 134 -67 101 -70 71 -77 b 58 -80 39 -101 58 -110 b 83 -121 112 -118 139 -117 b 171 -114 202 -112 233 -112 b 297 -111 361 -120 425 -120 b 451 -120 483 -77 445 -69 z"},"v":{"x_min":0,"x_max":465,"ha":465,"o":"m 492 264 b 452 260 411 252 370 258 b 380 290 388 323 395 356 b 401 388 406 421 408 454 b 409 480 412 511 399 535 b 371 582 308 549 279 523 b 240 488 213 436 209 384 b 204 324 236 273 289 246 b 300 240 312 235 324 232 b 319 216 314 200 309 185 b 294 140 276 94 252 53 b 243 38 228 13 210 11 b 191 8 174 30 165 44 b 140 86 128 138 119 186 b 109 239 104 293 101 348 b 97 412 -19 372 -18 316 b -17 250 -10 185 10 122 b 29 67 59 0 114 -27 b 241 -89 312 81 343 171 b 349 189 355 207 361 225 b 404 220 450 225 490 236 b 505 240 515 265 492 264 z m 334 266 b 298 279 265 306 254 344 b 240 388 256 439 281 476 b 293 493 309 510 328 520 b 359 535 367 506 368 481 b 371 410 355 336 334 266 z"},"O":{"x_min":0,"x_max":1061,"ha":1061,"o":"m 766 921 b 616 991 437 947 305 859 b 181 777 73 648 53 497 b 44 425 54 348 98 289 b 134 239 190 214 249 206 b 247 176 248 146 250 118 b 260 -31 346 -198 511 -214 b 697 -232 843 -83 922 69 b 997 215 1027 382 1003 544 b 981 693 909 853 766 921 z m 871 229 b 836 108 769 -24 660 -95 b 610 -128 546 -141 488 -124 b 429 -106 376 -61 345 -9 b 307 54 294 127 296 199 b 296 201 296 202 296 204 b 382 205 468 239 539 291 b 563 233 571 170 586 109 b 594 78 603 46 615 16 b 627 -12 688 16 674 45 b 641 117 626 195 596 269 b 590 285 583 302 574 319 b 601 342 625 368 646 396 b 656 410 666 425 676 439 b 687 455 700 469 713 483 b 730 505 723 531 694 533 b 668 534 637 515 637 487 b 638 459 630 440 615 416 b 598 392 579 369 558 349 b 535 388 505 423 461 435 b 393 453 323 409 288 352 b 269 319 258 281 253 242 b 234 245 217 250 200 258 b 138 288 104 351 95 417 b 77 551 149 678 242 768 b 344 865 489 940 633 908 b 766 878 844 760 876 634 b 911 502 908 360 871 229 z m 298 238 b 303 296 320 360 372 390 b 438 430 493 376 525 320 b 486 290 442 267 395 253 b 364 244 331 238 298 238 z"},"(":{"x_min":0,"x_max":470,"ha":470,"o":"m 397 -191 b 255 -188 183 -27 161 92 b 136 232 150 376 195 511 b 207 549 223 585 241 620 b 249 638 259 656 268 673 b 273 681 278 688 283 696 b 285 699 287 702 289 704 b 291 707 292 709 295 712 b 296 712 297 713 297 714 b 308 705 336 721 328 734 b 310 763 266 733 247 720 b 213 695 186 657 164 621 b 118 545 85 459 67 372 b 49 285 45 195 56 107 b 66 20 89 -67 143 -138 b 201 -216 297 -257 393 -237 b 421 -232 434 -191 397 -191 z"},"C":{"x_min":0,"x_max":920,"ha":920,"o":"m 193 399 b 160 255 144 103 163 -44 b 179 -168 227 -331 376 -347 b 515 -361 620 -255 688 -147 b 765 -24 821 114 852 256 b 859 291 865 327 870 363 b 872 384 837 377 835 361 b 818 239 784 119 732 8 b 707 -47 677 -101 644 -151 b 612 -200 575 -248 524 -278 b 479 -306 418 -310 373 -278 b 334 -249 313 -199 300 -154 b 263 -37 263 95 276 216 b 281 265 288 315 298 364 b 413 346 538 386 625 462 b 710 538 775 667 724 780 b 699 834 642 862 585 869 b 519 878 449 838 402 796 b 297 703 237 573 203 439 b 170 460 142 488 121 524 b 91 575 83 635 100 692 b 115 743 182 834 240 777 b 254 764 289 787 274 802 b 227 847 158 823 117 784 b 75 744 53 689 50 632 b 45 531 108 445 193 399 z m 356 566 b 378 617 405 668 437 714 b 464 752 499 790 546 803 b 569 810 591 815 615 809 b 643 801 665 784 680 758 b 706 711 700 651 683 602 b 648 505 557 434 459 407 b 410 394 356 391 305 400 b 318 457 335 512 356 566 z"},"W":{"x_min":0,"x_max":2211,"ha":2211,"o":"m 110 774 b 153 805 212 803 257 778 b 307 751 334 694 348 641 b 384 505 372 359 388 219 b 402 99 437 -29 526 -117 b 569 -159 630 -188 691 -170 b 750 -153 790 -103 821 -52 b 855 3 881 62 909 120 b 922 146 935 171 950 196 b 974 33 1026 -126 1131 -255 b 1189 -326 1265 -380 1357 -394 b 1456 -408 1558 -373 1644 -325 b 1795 -240 1912 -111 1997 39 b 2090 204 2153 395 2161 584 b 2168 768 2111 962 1973 1089 b 1853 1198 1685 1238 1526 1216 b 1361 1193 1211 1106 1114 968 b 1017 828 992 645 1068 490 b 1150 322 1336 243 1516 241 b 1696 240 1871 324 1967 478 b 1989 513 2006 551 2018 590 b 2026 618 1975 610 1969 587 b 1925 427 1786 315 1625 286 b 1459 255 1259 305 1152 442 b 1053 567 1042 745 1110 887 b 1178 1028 1309 1130 1461 1165 b 1598 1196 1755 1169 1871 1088 b 2006 995 2078 835 2093 676 b 2110 495 2061 310 1986 147 b 1923 8 1835 -121 1713 -215 b 1652 -261 1581 -301 1505 -316 b 1465 -323 1423 -323 1385 -310 b 1349 -297 1319 -274 1290 -250 b 1162 -142 1102 27 1061 185 b 1050 225 1041 265 1033 306 b 1024 346 972 330 952 310 b 870 227 837 116 791 13 b 771 -30 740 -105 690 -120 b 632 -138 577 -69 551 -27 b 483 82 466 215 458 341 b 453 414 451 488 442 561 b 435 621 424 684 396 740 b 367 798 318 841 253 856 b 188 871 120 854 66 815 b 53 805 43 785 57 771 b 71 756 96 765 110 774 z"},"A":{"x_min":0,"x_max":1047,"ha":1047,"o":"m 542 -4 b 565 42 584 90 600 139 b 629 142 659 142 689 142 b 728 143 768 143 807 146 b 808 137 809 128 810 119 b 819 24 834 -82 887 -164 b 937 -243 1029 -288 1121 -250 b 1146 -239 1140 -206 1111 -213 b 1021 -234 975 -113 959 -47 b 934 50 927 151 921 251 b 911 438 916 654 795 810 b 743 876 665 923 580 926 b 493 929 406 892 335 846 b 198 758 90 606 70 442 b 58 349 83 250 168 200 b 256 146 346 195 416 254 b 438 272 412 291 393 275 b 361 249 325 220 282 213 b 243 206 204 222 174 248 b 107 307 101 402 119 484 b 153 635 257 770 393 843 b 468 883 551 903 628 856 b 684 821 720 765 744 705 b 717 682 704 650 693 617 b 675 565 660 512 646 458 b 620 361 599 262 569 165 b 524 158 480 142 448 110 b 430 91 464 83 477 97 b 498 119 529 128 558 133 b 528 43 487 -46 428 -122 b 375 -189 297 -254 205 -244 b 156 -239 114 -211 98 -163 b 80 -107 104 -51 145 -13 b 164 4 133 18 118 5 b 49 -58 16 -175 99 -243 b 170 -302 275 -282 348 -238 b 436 -184 497 -95 542 -4 z m 651 319 b 667 386 683 453 701 520 b 709 553 719 586 730 619 b 736 638 743 658 755 674 b 756 670 757 666 758 662 b 805 505 794 338 805 176 b 754 172 702 174 651 172 b 638 172 624 171 610 170 b 625 219 638 269 651 319 z"},"f":{"x_min":0,"x_max":437,"ha":437,"o":"m 446 247 b 400 208 347 180 292 155 b 265 142 237 131 210 119 b 182 107 152 100 124 88 b 123 87 122 87 121 86 b 116 118 113 151 110 183 b 108 217 107 251 108 286 b 247 301 382 394 427 529 b 450 598 433 688 359 718 b 283 749 197 714 141 661 b 7 536 -25 334 -12 159 b -6 70 12 -28 59 -106 b 82 -144 110 -178 153 -194 b 194 -210 239 -206 279 -191 b 359 -160 412 -75 378 9 b 354 69 299 92 240 97 b 264 108 289 119 313 130 b 368 157 422 187 469 227 b 489 244 464 262 446 247 z m 120 403 b 129 462 142 521 169 575 b 193 621 234 680 290 685 b 362 691 401 624 392 559 b 373 426 237 331 110 318 b 112 347 115 375 120 403 z m 319 -16 b 340 -63 321 -138 261 -144 b 198 -151 164 -68 147 -20 b 141 -1 135 20 130 40 b 132 41 134 41 137 41 b 201 53 287 54 319 -16 z"},"Q":{"x_min":0,"x_max":1104,"ha":1104,"o":"m 766 921 b 616 991 437 947 305 859 b 181 777 73 648 53 497 b 44 425 54 348 98 289 b 134 239 190 214 249 206 b 247 176 248 146 250 118 b 258 -5 318 -140 432 -192 b 395 -194 360 -202 327 -222 b 307 -234 318 -259 339 -247 b 395 -214 461 -222 522 -236 b 592 -252 658 -276 728 -291 b 839 -313 963 -305 1048 -221 b 1067 -202 1032 -193 1018 -207 b 927 -298 784 -272 673 -241 b 642 -233 609 -223 576 -213 b 731 -196 853 -65 922 69 b 997 215 1027 382 1003 544 b 981 693 909 853 766 921 z m 871 229 b 836 108 769 -24 660 -95 b 610 -128 546 -141 488 -124 b 429 -106 376 -61 345 -9 b 307 54 294 127 296 199 b 296 201 296 202 296 204 b 382 205 468 239 539 291 b 563 233 571 170 586 109 b 594 78 603 46 615 16 b 627 -12 688 16 674 45 b 641 117 626 195 596 269 b 590 285 583 302 574 319 b 601 342 625 368 646 396 b 656 410 666 425 676 439 b 687 455 700 469 713 483 b 730 505 723 531 694 533 b 668 534 637 515 637 487 b 638 459 630 440 615 416 b 598 392 579 369 558 349 b 535 388 505 423 461 435 b 393 453 323 409 288 352 b 269 319 258 281 253 242 b 234 245 217 250 200 258 b 138 288 104 351 95 417 b 77 551 149 678 242 768 b 344 865 489 940 633 908 b 766 878 844 760 876 634 b 911 502 907 360 871 229 z m 298 238 b 303 296 320 360 372 390 b 438 430 493 376 525 320 b 486 290 442 267 395 253 b 364 244 331 238 298 238 z"},"w":{"x_min":0,"x_max":670,"ha":670,"o":"m 692 265 b 661 259 627 254 593 256 b 599 299 602 343 600 386 b 598 439 590 517 545 553 b 506 585 454 556 431 520 b 402 477 389 420 397 369 b 406 311 444 265 498 241 b 514 234 531 229 548 226 b 548 225 548 224 548 223 b 539 179 528 136 507 97 b 491 66 456 21 418 44 b 385 63 373 106 365 141 b 352 194 356 247 348 300 b 339 355 249 325 241 283 b 241 281 241 279 240 278 b 226 234 222 186 209 142 b 201 113 164 -1 119 22 b 102 31 96 57 92 75 b 85 101 83 128 83 155 b 82 211 89 268 100 323 b 105 350 82 365 57 364 b 30 363 1 344 -6 317 b -24 247 -31 169 -16 98 b -4 39 30 -35 102 -30 b 165 -25 207 36 229 89 b 236 104 241 119 246 135 b 250 117 255 100 260 83 b 277 34 313 -16 367 -27 b 426 -39 485 -2 518 44 b 551 90 571 145 583 201 b 585 208 586 215 587 222 b 623 221 660 227 695 236 b 717 241 718 271 692 265 z m 554 262 b 511 271 473 294 451 338 b 432 375 432 420 443 460 b 453 499 491 570 529 509 b 553 469 559 417 561 371 b 562 334 559 298 554 262 z"},"-":{"x_min":0,"x_max":466,"ha":466,"o":"m 380 287 b 332 285 284 281 235 277 b 187 273 137 272 89 263 b 47 255 30 196 83 194 b 129 193 177 199 222 202 b 269 205 316 208 362 214 b 384 216 410 229 415 253 b 420 276 400 287 380 287 z"},"E":{"x_min":0,"x_max":993,"ha":993,"o":"m 504 -336 b 639 -310 726 -193 793 -82 b 875 54 930 206 952 363 b 955 384 920 377 918 361 b 898 236 859 115 801 3 b 772 -54 739 -109 700 -160 b 664 -208 621 -255 566 -282 b 513 -308 451 -313 398 -281 b 353 -253 324 -205 311 -154 b 300 -112 304 -66 320 -26 b 332 8 350 31 375 58 b 378 61 381 64 384 67 b 386 69 388 71 390 73 b 390 73 390 73 391 74 b 398 80 405 86 412 91 b 425 101 438 111 451 120 b 451 120 453 121 454 122 b 455 122 455 122 456 123 b 460 125 464 128 469 130 b 473 132 477 134 481 136 b 499 145 518 163 519 184 b 520 203 507 219 487 221 b 480 222 473 224 465 225 b 465 225 465 226 465 226 b 465 226 464 226 464 226 b 460 228 455 229 451 231 b 442 235 432 239 423 245 b 423 245 423 245 422 246 b 420 247 417 249 415 251 b 410 255 405 259 401 263 b 392 271 383 281 377 290 b 363 311 352 335 346 360 b 461 352 582 388 669 453 b 738 503 797 579 807 666 b 819 763 763 846 665 861 b 615 868 566 864 520 843 b 469 821 425 784 387 744 b 314 667 257 571 233 467 b 231 456 228 444 227 432 b 155 471 94 539 91 623 b 89 667 102 711 129 745 b 159 782 217 816 260 777 b 274 765 309 788 293 802 b 216 871 106 790 71 716 b 31 633 50 539 110 471 b 142 434 181 407 224 389 b 224 316 248 244 303 192 b 317 179 334 167 352 157 b 253 79 177 -39 205 -163 b 220 -226 260 -277 314 -310 b 373 -347 437 -349 504 -336 z m 390 589 b 426 659 471 735 538 780 b 569 800 606 817 643 816 b 684 814 725 796 746 760 b 787 693 761 603 717 544 b 634 433 480 378 341 397 b 337 463 360 531 390 589 z m 422 246 b 417 249 420 247 422 246 z"},"s":{"x_min":0,"x_max":300,"ha":300,"o":"m 290 201 b 295 205 299 209 304 212 b 309 216 314 220 319 224 b 320 224 320 224 320 225 b 321 225 321 225 322 225 b 329 227 339 234 338 243 b 338 243 337 244 337 244 b 337 249 333 253 328 254 b 306 256 285 233 269 220 b 239 198 211 174 182 150 b 174 143 166 135 158 128 b 133 162 110 197 94 236 b 84 261 77 293 86 319 b 95 346 123 352 144 334 b 160 319 199 344 182 362 b 149 397 93 400 53 377 b 2 348 -26 292 -24 235 b -22 176 13 123 47 77 b 55 65 64 54 73 43 b 66 34 59 25 52 16 b 16 -32 -12 -88 -22 -148 b -31 -204 -27 -268 17 -309 b 96 -383 241 -367 304 -280 b 385 -167 276 -24 208 64 b 197 78 187 91 176 105 b 199 126 223 146 246 166 b 261 178 275 189 290 201 z m 243 -217 b 259 -269 225 -315 172 -322 b 115 -329 46 -301 24 -245 b 3 -189 17 -120 41 -67 b 55 -37 73 -9 93 17 b 116 -11 139 -39 161 -68 b 194 -113 226 -164 243 -217 z"},">":{"x_min":0,"x_max":355,"ha":355,"o":"m 290 294 b 257 309 225 325 191 339 b 175 346 160 352 144 358 b 125 364 103 368 84 376 b 67 384 36 359 58 346 b 73 337 87 323 102 313 b 116 303 130 295 144 286 b 153 281 161 276 170 271 b 133 257 97 237 68 210 b 54 199 42 179 57 163 b 72 148 100 157 114 167 b 161 202 209 223 267 233 b 291 237 324 278 290 294 z"},"l":{"x_min":0,"x_max":385,"ha":385,"o":"m 384 241 b 364 186 340 131 310 80 b 286 41 241 -45 185 -26 b 141 -11 125 62 117 102 b 105 161 98 222 97 282 b 97 286 97 291 97 295 b 98 295 99 295 100 296 b 216 341 335 415 371 542 b 386 596 385 665 341 706 b 295 749 215 744 164 714 b 28 636 -6 457 -13 314 b -16 237 -9 155 11 80 b 28 18 58 -58 125 -79 b 203 -105 273 -34 314 24 b 361 91 395 166 420 244 b 426 264 390 256 384 241 z m 111 466 b 120 520 131 580 163 626 b 187 663 236 700 282 688 b 339 672 345 603 335 555 b 311 436 202 371 97 328 b 99 374 103 420 111 466 z"},"8":{"x_min":0,"x_max":461,"ha":461,"o":"m 140 280 b 119 243 105 201 95 158 b 81 97 75 31 100 -28 b 120 -79 164 -118 219 -126 b 273 -133 330 -109 362 -64 b 397 -15 420 54 408 115 b 398 165 371 207 337 243 b 357 306 366 372 364 438 b 363 496 355 558 311 601 b 269 642 202 647 150 624 b 88 597 54 535 50 469 b 46 391 87 332 140 280 z m 325 0 b 319 -25 311 -51 294 -72 b 272 -100 235 -97 205 -84 b 140 -55 119 25 122 90 b 125 145 139 206 164 258 b 201 225 241 194 274 162 b 319 117 340 64 325 0 z m 174 579 b 205 598 250 594 277 570 b 305 545 315 506 320 470 b 328 405 322 338 306 273 b 306 274 305 274 305 274 b 257 318 205 360 174 418 b 152 460 122 545 174 579 z"},"\\":{"x_min":0,"x_max":510,"ha":510,"o":"m 457 -157 b 393 -8 327 139 273 293 b 247 368 224 444 199 520 b 174 595 147 669 102 734 b 86 757 44 736 51 710 b 136 400 206 80 356 -206 b 381 -253 478 -206 457 -157 z"},"e":{"x_min":0,"x_max":332,"ha":332,"o":"m 331 243 b 301 164 273 81 218 15 b 199 -9 164 -51 129 -30 b 100 -13 91 36 86 66 b 79 117 81 174 95 227 b 129 223 164 233 191 254 b 218 275 246 318 229 353 b 209 392 157 398 121 383 b 75 365 39 324 14 282 b -38 198 -49 77 -8 -14 b 13 -60 51 -91 103 -90 b 148 -89 185 -64 217 -34 b 295 38 335 145 366 245 b 373 265 337 257 331 243 z m 122 295 b 130 309 141 329 157 336 b 173 344 189 334 189 315 b 189 275 141 258 106 261 b 111 273 116 284 122 295 z"},"b":{"x_min":0,"x_max":526,"ha":526,"o":"m 557 247 b 532 260 505 254 480 245 b 463 239 446 232 429 225 b 425 239 420 253 414 266 b 390 320 340 361 277 351 b 210 341 162 282 134 224 b 121 199 111 173 103 146 b 99 193 95 240 95 288 b 95 293 95 299 95 304 b 184 346 263 411 322 489 b 377 561 427 680 340 749 b 259 813 142 769 85 696 b 11 601 -3 476 -8 360 b -11 293 -11 226 -4 160 b -1 128 4 97 12 66 b 16 50 21 34 27 19 b 33 1 43 -12 54 -28 b 70 -52 116 -33 115 -5 b 115 -3 115 -1 114 1 b 115 2 115 2 115 3 b 120 57 132 111 149 163 b 165 211 187 262 227 295 b 244 309 268 322 291 318 b 317 313 325 285 331 262 b 337 235 340 207 342 179 b 303 155 266 128 232 98 b 186 55 136 2 120 -61 b 114 -85 116 -111 123 -136 b 133 -170 153 -189 189 -197 b 264 -215 335 -160 375 -101 b 411 -49 435 15 441 78 b 444 117 444 156 437 195 b 440 196 444 198 447 200 b 471 210 506 231 531 218 b 548 209 578 237 557 247 z m 119 582 b 133 649 182 755 268 736 b 314 727 341 689 345 644 b 348 597 326 553 299 515 b 247 440 176 382 96 340 b 97 421 102 504 119 582 z m 342 121 b 340 75 331 26 314 -16 b 300 -50 277 -99 243 -117 b 231 -123 217 -125 204 -120 b 179 -111 166 -95 166 -67 b 166 -17 210 30 243 63 b 273 93 306 120 342 143 b 342 136 342 128 342 121 z"},"%":{"x_min":0,"x_max":635,"ha":635,"o":"m 558 699 b 531 704 505 688 490 667 b 399 528 323 377 251 228 b 180 81 109 -73 70 -232 b 60 -271 124 -258 135 -235 b 211 -87 273 68 346 217 b 419 365 502 507 581 652 b 592 673 581 695 558 699 z m 149 364 b 216 360 251 421 255 479 b 260 534 243 600 176 599 b 141 598 105 579 88 551 b 69 543 50 527 50 508 b 49 451 84 368 149 364 z m 141 552 b 155 557 170 556 181 546 b 203 524 199 485 195 458 b 193 450 190 425 179 423 b 180 423 167 436 164 439 b 145 466 140 499 136 531 b 135 537 133 542 130 546 b 133 548 137 551 141 552 z m 429 117 b 408 119 379 114 362 98 b 342 94 324 79 318 59 b 300 2 313 -89 384 -100 b 447 -110 514 -56 521 6 b 528 60 483 112 429 117 z m 446 -19 b 405 -64 405 44 409 65 b 410 72 409 78 407 83 b 414 83 421 82 427 80 b 441 75 451 66 457 52 b 466 29 463 -1 446 -19 z"},"m":{"x_min":0,"x_max":675,"ha":675,"o":"m 672 214 b 641 154 618 90 578 35 b 569 22 558 9 546 -2 b 543 -5 531 -17 526 -16 b 521 -16 527 -18 524 -12 b 522 -9 522 -3 521 1 b 512 36 518 72 522 108 b 527 147 533 186 536 225 b 538 262 542 304 527 340 b 517 365 490 385 461 385 b 432 385 406 362 390 340 b 362 305 342 264 325 221 b 322 263 315 304 300 343 b 283 391 232 437 184 397 b 138 358 121 282 106 227 b 102 214 99 201 95 188 b 95 241 100 295 103 348 b 105 374 69 381 51 378 b 26 374 -3 356 -8 330 b -21 265 -21 198 -16 132 b -14 101 -9 70 -2 40 b 4 10 14 -27 49 -31 b 71 -34 92 -21 99 -1 b 103 9 104 20 104 31 b 110 80 119 128 130 175 b 144 231 159 288 184 340 b 189 351 196 366 205 374 b 211 378 216 384 222 376 b 227 372 226 360 226 354 b 226 328 223 302 221 275 b 218 217 216 158 217 99 b 217 70 255 65 276 71 b 297 76 317 91 325 111 b 327 113 329 116 330 119 b 349 191 373 271 420 330 b 425 336 432 345 439 349 b 441 350 453 354 456 351 b 457 349 455 339 455 337 b 452 317 446 297 443 278 b 435 239 428 200 422 161 b 415 122 408 83 405 43 b 403 8 405 -37 440 -56 b 467 -70 507 -63 533 -50 b 561 -37 583 -13 602 10 b 648 70 672 142 707 208 b 719 230 681 230 672 214 z"},"#":{"x_min":0,"x_max":841,"ha":841,"o":"m 779 383 b 729 399 675 399 623 398 b 621 398 620 398 618 398 b 638 485 660 571 680 658 b 686 682 663 696 641 695 b 616 694 590 677 583 652 b 558 567 537 480 518 393 b 497 392 476 390 455 388 b 446 387 438 387 430 386 b 437 415 445 443 453 471 b 475 546 501 620 524 694 b 531 717 509 732 490 733 b 467 734 437 721 427 699 b 382 597 348 489 322 380 b 312 380 302 380 293 379 b 239 377 177 376 128 353 b 100 340 96 303 132 302 b 157 302 182 308 206 311 b 232 314 257 316 283 318 b 291 319 299 319 307 320 b 301 293 296 267 291 240 b 288 226 285 212 283 197 b 210 187 139 173 67 155 b 45 150 43 120 70 125 b 138 136 206 145 275 152 b 267 104 260 56 255 7 b 248 -71 239 -151 253 -229 b 259 -263 312 -243 318 -218 b 338 -142 343 -64 355 13 b 363 63 371 112 379 161 b 383 161 386 161 390 162 b 418 163 446 165 474 165 b 463 103 454 40 447 -23 b 443 -59 440 -95 439 -130 b 438 -159 430 -214 454 -234 b 465 -244 484 -238 493 -227 b 515 -200 515 -156 520 -122 b 525 -84 531 -46 537 -8 b 546 50 557 108 569 166 b 587 166 606 166 624 166 b 652 165 683 161 711 165 b 736 168 773 207 731 218 b 707 224 678 222 652 222 b 628 223 604 222 580 222 b 588 262 596 302 605 342 b 655 342 704 338 754 336 b 772 336 810 373 779 383 z m 484 218 b 455 216 426 214 397 211 b 394 211 392 211 389 210 b 391 222 394 234 396 246 b 402 274 409 301 415 329 b 424 329 432 330 441 331 b 463 333 485 335 507 336 b 499 297 491 257 484 218 z"},",":{"x_min":0,"x_max":241,"ha":241,"o":"m 110 79 b 87 34 63 -14 51 -63 b 47 -80 61 -90 75 -91 b 94 -92 110 -81 120 -66 b 148 -25 168 21 187 66 b 209 119 128 116 110 79 z"},"n":{"x_min":0,"x_max":457,"ha":457,"o":"m 456 248 b 409 182 381 106 343 34 b 334 17 324 0 313 -17 b 310 -21 299 -39 293 -39 b 286 -38 288 -26 289 -22 b 291 20 297 62 301 103 b 305 150 309 197 311 244 b 312 280 316 335 284 358 b 260 376 229 388 201 373 b 171 356 153 318 139 288 b 117 243 99 196 83 148 b 84 203 89 258 91 314 b 92 338 60 344 43 341 b 20 337 -6 321 -11 297 b -23 242 -25 185 -22 128 b -20 79 -15 14 21 -23 b 27 -30 38 -29 46 -27 b 53 -25 59 -22 64 -17 b 74 -7 78 9 80 24 b 106 104 131 185 166 262 b 174 280 183 299 193 317 b 198 324 203 335 210 340 b 227 353 222 338 221 327 b 217 308 217 288 214 269 b 209 245 204 222 201 198 b 193 153 188 108 183 64 b 179 26 170 -25 198 -56 b 221 -82 261 -89 293 -78 b 327 -66 347 -36 365 -5 b 411 74 439 162 491 238 b 504 258 467 263 456 248 z"},"h":{"x_min":0,"x_max":516,"ha":516,"o":"m 509 214 b 491 167 473 121 455 75 b 440 37 425 -5 399 -38 b 393 -46 386 -54 377 -58 b 366 -63 369 -60 363 -54 b 352 -42 355 -22 355 -8 b 354 36 354 80 358 123 b 361 168 368 213 365 258 b 363 279 361 298 353 317 b 349 326 345 336 339 343 b 331 352 326 351 316 355 b 303 360 294 367 278 364 b 260 362 244 352 230 339 b 203 316 182 282 165 251 b 140 205 122 155 107 104 b 101 165 95 226 95 288 b 95 293 95 299 95 304 b 184 346 263 411 322 489 b 377 561 427 680 340 749 b 259 813 142 769 85 696 b 11 601 -3 476 -8 360 b -11 293 -11 226 -4 160 b -1 128 4 97 12 66 b 16 50 21 34 27 19 b 33 1 43 -12 54 -28 b 70 -52 116 -33 115 -5 b 115 -5 115 -5 115 -4 b 115 -4 115 -3 115 -2 b 131 58 146 119 169 177 b 177 197 245 345 280 331 b 278 324 277 319 277 311 b 277 302 275 293 273 283 b 269 262 266 240 262 219 b 256 179 250 139 245 98 b 238 34 222 -71 298 -102 b 328 -114 372 -101 397 -85 b 424 -67 443 -38 457 -10 b 495 61 519 141 548 216 b 556 237 515 231 509 214 z m 119 582 b 133 649 182 755 268 736 b 314 727 341 689 345 644 b 348 597 326 553 299 515 b 247 440 176 382 96 340 b 97 421 102 504 119 582 z"},"z":{"x_min":0,"x_max":407,"ha":407,"o":"m 426 243 b 377 232 332 204 291 174 b 288 177 285 180 282 182 b 256 204 224 218 191 225 b 212 255 227 290 229 326 b 232 390 171 424 113 421 b 56 418 0 387 -32 340 b -49 316 -62 282 -50 253 b -40 228 -16 215 11 218 b 29 220 44 250 18 248 b -11 246 -18 281 -13 302 b -7 322 7 340 22 353 b 50 378 91 393 129 386 b 185 376 167 326 143 291 b 121 260 95 235 64 212 b 31 189 36 134 85 140 b 120 144 157 140 186 119 b 193 114 198 110 203 104 b 183 86 164 68 146 48 b 74 -29 -6 -132 -15 -242 b -20 -293 -8 -345 50 -356 b 110 -367 172 -334 215 -296 b 302 -221 344 -109 345 5 b 346 55 338 110 309 151 b 346 178 386 204 429 214 b 451 219 452 249 426 243 z m 178 -225 b 159 -254 129 -287 94 -296 b 36 -311 26 -258 33 -214 b 46 -123 112 -38 172 28 b 187 46 203 62 220 78 b 230 57 234 34 236 11 b 242 -71 223 -155 178 -225 z"},"B":{"x_min":0,"x_max":1641,"ha":1641,"o":"m 88 423 b 214 254 477 467 497 621 b 500 641 466 635 464 619 b 445 489 220 295 117 452 b 62 537 97 651 145 731 b 178 786 226 832 283 863 b 357 904 452 930 527 881 b 669 789 676 585 681 435 b 685 328 682 221 675 115 b 668 9 652 -97 653 -203 b 653 -228 684 -235 703 -231 b 726 -228 755 -211 759 -186 b 768 -143 774 -100 778 -57 b 819 115 865 287 935 449 b 977 546 1026 644 1092 726 b 1123 764 1162 805 1208 825 b 1230 835 1262 837 1277 814 b 1292 791 1279 757 1268 735 b 1244 684 1198 648 1154 614 b 1109 578 1059 551 1007 528 b 988 520 967 498 969 476 b 971 455 995 443 1014 446 b 1089 457 1166 459 1238 430 b 1240 429 1243 428 1246 427 b 1166 355 1096 271 1041 178 b 995 100 957 15 947 -76 b 938 -155 945 -253 1009 -310 b 1067 -361 1151 -365 1223 -348 b 1303 -330 1373 -280 1425 -217 b 1539 -78 1586 125 1520 295 b 1490 372 1436 440 1367 484 b 1385 497 1403 509 1422 521 b 1430 525 1434 537 1427 544 b 1420 552 1407 546 1399 542 b 1378 529 1358 515 1338 500 b 1290 525 1238 538 1185 542 b 1238 585 1284 636 1313 694 b 1335 738 1349 797 1313 839 b 1278 880 1218 868 1177 843 b 1078 785 1013 680 960 581 b 901 472 856 355 819 237 b 809 205 800 173 791 141 b 791 143 791 144 791 146 b 796 255 797 364 788 473 b 772 649 728 873 532 929 b 372 974 198 876 114 741 b 57 651 17 517 88 423 z m 1390 294 b 1464 163 1452 -8 1381 -138 b 1325 -239 1187 -364 1064 -292 b 994 -250 981 -155 987 -82 b 995 2 1027 81 1068 154 b 1123 251 1194 338 1276 411 b 1324 384 1363 343 1390 294 z"},"K":{"x_min":0,"x_max":1320,"ha":1320,"o":"m 1388 769 b 1341 726 1277 707 1214 709 b 1193 710 1178 677 1206 676 b 1267 674 1328 691 1379 724 b 1420 750 1471 796 1461 850 b 1450 906 1378 914 1332 912 b 1265 910 1201 884 1144 850 b 1028 782 936 682 850 581 b 828 554 806 528 785 501 b 767 671 718 876 532 929 b 372 974 198 876 114 741 b 57 651 17 517 88 423 b 214 254 477 467 497 621 b 500 641 466 635 464 619 b 445 489 220 295 117 452 b 62 537 97 651 145 731 b 178 786 226 832 283 863 b 357 904 452 930 527 881 b 669 789 676 585 681 435 b 682 414 682 392 683 370 b 671 356 659 341 648 326 b 636 311 624 295 612 280 b 604 269 590 257 586 244 b 582 230 590 222 599 212 b 610 199 619 185 626 170 b 641 139 649 104 655 69 b 659 47 662 26 665 4 b 659 -65 652 -134 653 -203 b 653 -228 684 -235 703 -231 b 726 -228 755 -211 760 -186 b 781 -77 786 36 791 146 b 795 226 796 307 793 387 b 796 381 798 375 801 369 b 812 337 821 304 830 271 b 849 206 865 140 888 75 b 925 -26 980 -113 1057 -183 b 1034 -201 1011 -221 989 -241 b 982 -248 983 -258 991 -263 b 1001 -269 1013 -261 1020 -255 b 1039 -237 1060 -219 1081 -203 b 1095 -214 1109 -225 1124 -235 b 1220 -299 1358 -335 1458 -262 b 1498 -233 1539 -176 1516 -124 b 1495 -74 1427 -65 1379 -62 b 1292 -58 1211 -85 1137 -128 b 1135 -125 1133 -123 1130 -120 b 1059 -37 1010 64 976 167 b 956 229 939 292 918 353 b 899 407 874 473 813 484 b 881 570 951 655 1032 728 b 1114 803 1221 881 1337 879 b 1364 879 1402 875 1416 848 b 1431 820 1408 787 1388 769 z m 1332 -95 b 1375 -93 1454 -94 1476 -140 b 1501 -192 1443 -242 1399 -256 b 1306 -284 1220 -217 1158 -151 b 1211 -120 1269 -99 1332 -95 z m 635 230 b 628 239 622 239 629 251 b 632 256 637 262 641 267 b 652 281 663 295 674 309 b 677 312 680 316 683 320 b 682 262 680 205 677 148 b 674 157 671 165 668 174 b 660 194 649 213 635 230 z"},"R":{"x_min":0,"x_max":1476,"ha":1476,"o":"m 815 305 b 809 304 802 303 795 303 b 795 360 792 416 788 473 b 772 649 728 873 532 929 b 372 974 198 876 114 741 b 57 651 17 517 88 423 b 214 254 477 467 497 621 b 500 641 466 635 464 619 b 445 489 220 295 117 452 b 62 537 97 651 145 731 b 178 786 226 832 283 863 b 357 904 452 930 527 881 b 669 789 676 585 681 435 b 685 328 682 221 675 115 b 668 9 652 -97 653 -203 b 653 -228 684 -235 703 -231 b 726 -228 755 -211 759 -186 b 764 -165 767 -145 770 -124 b 795 -47 802 35 816 115 b 819 138 823 161 828 184 b 835 180 841 176 846 173 b 866 161 882 145 898 127 b 928 92 953 52 980 14 b 1032 -60 1085 -137 1162 -188 b 1244 -243 1356 -265 1453 -247 b 1496 -239 1542 -220 1566 -181 b 1587 -148 1586 -104 1554 -78 b 1467 -5 1353 -89 1287 -149 b 1241 -125 1200 -91 1164 -52 b 1114 2 1075 65 1029 123 b 1000 158 971 190 932 214 b 923 220 913 225 903 228 b 1015 258 1121 313 1211 383 b 1276 433 1335 492 1383 558 b 1429 623 1475 702 1476 783 b 1477 849 1446 921 1378 942 b 1303 965 1215 936 1150 897 b 1003 806 919 632 864 474 b 845 419 829 362 815 305 z m 1412 -105 b 1443 -95 1494 -93 1516 -124 b 1542 -160 1495 -182 1467 -187 b 1428 -193 1386 -186 1349 -175 b 1338 -172 1328 -168 1318 -164 b 1346 -140 1376 -116 1412 -105 z m 1071 788 b 1122 846 1187 894 1263 911 b 1302 919 1348 921 1382 897 b 1409 878 1417 847 1417 815 b 1417 742 1374 672 1331 616 b 1288 561 1241 510 1187 467 b 1088 387 976 336 855 312 b 858 325 861 338 865 351 b 905 505 965 666 1071 788 z"},"T":{"x_min":0,"x_max":972,"ha":972,"o":"m 1069 992 b 1025 986 981 980 938 973 b 900 967 862 960 827 942 b 825 941 824 940 822 939 b 675 953 527 967 379 957 b 250 949 97 924 57 779 b 40 720 55 647 90 596 b 123 547 186 526 243 537 b 273 543 301 560 319 584 b 351 627 286 642 260 611 b 226 568 152 626 128 654 b 78 712 88 802 140 855 b 194 911 284 917 357 922 b 446 929 535 927 624 921 b 676 917 728 912 780 907 b 744 872 722 823 708 774 b 662 608 675 426 683 256 b 690 88 705 -84 766 -242 b 794 -313 835 -379 890 -432 b 944 -483 1023 -514 1090 -471 b 1114 -456 1135 -436 1141 -407 b 1148 -373 1129 -340 1109 -315 b 1059 -251 995 -195 936 -139 b 907 -110 877 -83 847 -56 b 844 -54 841 -53 838 -52 b 810 73 802 202 795 329 b 791 410 785 491 785 572 b 784 648 783 726 801 801 b 808 829 818 857 837 879 b 845 888 853 894 863 899 b 957 891 1051 883 1145 881 b 1226 880 1307 884 1386 901 b 1418 908 1568 937 1534 997 b 1519 1024 1475 1024 1449 1026 b 1409 1028 1369 1025 1330 1022 b 1242 1014 1155 1003 1069 992 z m 983 -244 b 1010 -271 1036 -298 1061 -327 b 1079 -348 1117 -398 1084 -423 b 1066 -437 1034 -419 1019 -407 b 994 -386 971 -359 953 -332 b 914 -275 885 -211 864 -145 b 863 -142 862 -139 861 -136 b 904 -170 945 -205 983 -244 z m 1413 993 b 1433 992 1453 992 1472 988 b 1477 987 1491 985 1493 979 b 1499 966 1474 960 1467 957 b 1432 944 1394 935 1357 928 b 1224 904 1086 914 950 926 b 1022 944 1095 960 1169 970 b 1249 981 1332 994 1413 993 z"},"P":{"x_min":0,"x_max":1341,"ha":1341,"o":"m 114 741 b 57 651 17 517 88 423 b 214 254 477 467 497 621 b 500 641 466 635 464 619 b 445 489 220 295 117 452 b 62 537 97 651 145 731 b 178 786 226 832 283 863 b 357 904 452 930 527 881 b 669 789 676 585 681 435 b 685 328 682 221 675 115 b 668 9 652 -97 653 -203 b 653 -228 684 -235 703 -231 b 726 -228 755 -211 760 -186 b 762 -171 765 -156 767 -141 b 796 -65 809 18 826 97 b 846 189 864 282 882 375 b 899 463 916 552 945 638 b 959 680 977 721 1004 757 b 1015 772 1029 790 1049 793 b 1071 796 1096 781 1110 765 b 1124 750 1131 728 1139 710 b 1147 691 1154 672 1159 652 b 1170 610 1177 566 1181 523 b 1182 520 1182 518 1182 515 b 1106 482 1046 423 992 360 b 931 288 873 200 855 105 b 848 63 847 8 872 -29 b 897 -68 942 -85 987 -80 b 1089 -71 1176 8 1223 95 b 1272 189 1290 300 1291 405 b 1292 505 1274 614 1224 702 b 1200 744 1168 775 1128 803 b 1094 828 1053 835 1016 813 b 979 791 954 748 935 710 b 914 667 899 620 887 574 b 855 455 836 333 812 213 b 805 176 797 138 789 101 b 790 116 790 131 791 146 b 796 255 797 364 788 473 b 772 649 728 873 532 929 b 372 974 198 876 114 741 z m 1168 261 b 1151 182 1127 98 1070 39 b 1048 16 1021 -9 989 -12 b 955 -16 920 19 910 48 b 893 95 909 150 928 193 b 947 237 973 278 1001 315 b 1050 379 1109 448 1185 483 b 1189 408 1183 333 1168 261 z"},"|":{"x_min":0,"x_max":215,"ha":215,"o":"m 157 316 b 155 392 151 468 147 543 b 144 582 142 621 139 659 b 136 695 136 736 123 769 b 112 796 70 772 64 754 b 54 717 57 675 55 637 b 54 598 54 558 54 519 b 53 442 52 365 52 288 b 51 133 48 -22 52 -177 b 52 -206 90 -211 112 -206 b 139 -198 164 -177 164 -147 b 168 7 162 162 157 316 z"},"t":{"x_min":0,"x_max":392,"ha":392,"o":"m 1378 626 b 1288 688 1176 693 1070 689 b 944 685 819 668 696 647 b 591 630 487 612 383 596 b 385 637 375 678 344 706 b 298 749 218 744 167 714 b 105 678 64 621 37 555 b -3 552 -43 550 -83 549 b -152 547 -222 545 -290 553 b -345 560 -400 577 -435 622 b -446 637 -481 615 -467 598 b -405 518 -289 518 -197 516 b -123 515 -49 517 25 522 b 3 454 -6 380 -9 314 b -13 237 -6 155 14 80 b 32 18 61 -58 129 -79 b 207 -105 277 -34 318 24 b 365 91 398 166 423 244 b 430 264 393 256 388 241 b 367 186 343 131 313 80 b 290 41 245 -45 189 -26 b 144 -11 128 61 120 102 b 108 161 101 222 100 282 b 100 286 100 291 100 295 b 101 295 102 295 103 296 b 219 341 338 415 374 542 b 376 549 378 556 379 564 b 572 595 763 634 957 650 b 1083 661 1235 676 1345 601 b 1361 590 1396 614 1378 626 z m 338 555 b 314 436 205 371 101 328 b 102 374 107 420 114 466 b 118 487 121 509 127 531 b 148 533 168 535 189 537 b 239 543 289 550 339 557 b 339 557 338 556 338 555 z m 136 564 b 144 586 153 607 166 626 b 190 663 239 700 286 688 b 330 676 343 631 342 590 b 274 580 205 571 136 564 z"},"M":{"x_min":0,"x_max":1848,"ha":1848,"o":"m 788 473 b 772 649 728 873 532 929 b 372 974 198 876 114 741 b 57 651 17 517 88 423 b 214 254 477 467 497 621 b 500 641 466 635 464 619 b 445 489 220 295 117 452 b 62 537 97 651 145 731 b 178 786 226 832 283 863 b 357 904 452 930 527 881 b 669 789 676 585 681 435 b 685 328 682 221 675 115 b 668 9 652 -97 653 -203 b 653 -228 684 -235 703 -231 b 726 -228 755 -211 759 -186 b 766 -150 772 -115 776 -79 b 812 121 852 321 923 512 b 942 565 963 617 994 664 b 1009 686 1027 712 1051 725 b 1084 743 1102 713 1111 685 b 1129 633 1138 576 1148 522 b 1158 468 1166 414 1173 359 b 1188 234 1194 105 1229 -17 b 1235 -37 1269 -34 1283 -29 b 1301 -22 1323 -4 1321 18 b 1321 18 1321 18 1321 18 b 1322 19 1322 20 1322 21 b 1347 173 1372 326 1418 473 b 1441 545 1467 617 1508 680 b 1526 708 1552 747 1586 755 b 1631 767 1640 722 1644 688 b 1652 609 1644 527 1637 449 b 1630 371 1623 293 1617 215 b 1611 135 1608 55 1610 -25 b 1613 -102 1619 -181 1644 -253 b 1666 -319 1716 -411 1800 -389 b 1873 -370 1883 -285 1828 -240 b 1814 -228 1778 -251 1795 -266 b 1808 -277 1820 -292 1822 -310 b 1823 -323 1819 -344 1805 -333 b 1781 -315 1771 -270 1763 -244 b 1742 -175 1735 -103 1730 -32 b 1720 121 1737 274 1737 427 b 1738 504 1742 586 1723 661 b 1710 714 1684 780 1622 789 b 1561 798 1513 746 1481 700 b 1442 644 1417 579 1394 515 b 1353 394 1328 269 1307 143 b 1296 226 1284 308 1269 389 b 1258 450 1246 512 1225 569 b 1206 622 1184 680 1148 725 b 1116 764 1072 773 1028 746 b 983 717 953 665 929 618 b 874 507 839 383 809 262 b 803 240 798 217 793 194 b 796 287 796 380 788 473 z"},"g":{"x_min":0,"x_max":435,"ha":435,"o":"m 438 231 b 404 193 367 159 328 127 b 328 201 326 275 326 349 b 326 377 288 382 268 376 b 250 372 234 361 224 345 b 215 352 205 357 193 360 b 149 372 103 357 67 330 b -5 277 -48 174 -28 85 b -19 41 8 3 55 -3 b 96 -9 131 18 152 51 b 187 103 200 165 216 226 b 217 165 219 105 220 44 b 195 26 170 8 146 -11 b 64 -72 -35 -138 -83 -232 b -109 -283 -116 -352 -96 -407 b -73 -468 -17 -503 48 -501 b 211 -498 278 -330 304 -194 b 322 -101 328 -7 328 88 b 378 127 425 170 466 217 b 483 237 450 245 438 231 z m 152 138 b 142 109 130 80 112 55 b 104 43 97 49 89 60 b 81 70 77 83 74 95 b 62 151 78 208 104 258 b 113 276 125 300 146 304 b 165 308 185 300 200 286 b 180 238 168 188 152 138 z m 216 -111 b 212 -180 201 -250 182 -317 b 166 -371 140 -432 86 -457 b 23 -486 -39 -441 -58 -380 b -74 -329 -63 -267 -35 -222 b 15 -140 105 -81 181 -24 b 194 -14 207 -5 220 5 b 220 -34 219 -72 216 -111 z"},"j":{"x_min":0,"x_max":223,"ha":223,"o":"m 227 231 b 193 193 156 159 117 127 b 117 201 115 275 115 349 b 115 377 77 382 57 376 b 30 369 7 348 6 320 b 3 228 8 136 9 44 b -16 26 -41 8 -65 -11 b -147 -72 -246 -138 -294 -232 b -320 -283 -327 -352 -307 -407 b -283 -468 -228 -503 -163 -501 b 0 -498 67 -330 94 -194 b 111 -101 117 -7 117 88 b 167 127 214 170 255 217 b 272 237 239 245 227 231 z m 5 -111 b 1 -180 -10 -250 -29 -317 b -45 -371 -71 -432 -125 -457 b -188 -486 -250 -441 -269 -380 b -285 -329 -274 -267 -246 -222 b -196 -140 -106 -81 -30 -24 b -17 -14 -4 -5 9 5 b 9 -34 8 -72 5 -111 z m 76 418 b 102 441 128 466 148 494 b 160 511 184 551 161 568 b 138 585 105 561 90 545 b 79 533 69 517 61 502 b 60 501 60 500 59 498 b 57 505 55 510 53 514 b 46 529 39 543 26 554 b 12 565 -11 551 -12 535 b -15 490 14 457 42 425 b 43 413 64 408 76 418 z"},"i":{"x_min":0,"x_max":231,"ha":231,"o":"m 228 243 b 215 197 202 150 183 105 b 173 83 162 62 148 42 b 142 33 131 14 118 16 b 110 18 105 29 103 36 b 94 55 94 76 93 96 b 91 123 91 149 92 176 b 92 229 102 281 106 334 b 107 360 71 366 53 363 b 27 359 1 342 -6 315 b -23 249 -27 172 -19 104 b -12 47 1 -30 73 -36 b 134 -41 178 17 203 65 b 233 121 250 184 266 246 b 271 267 233 260 228 243 z m 57 418 b 83 441 109 466 129 494 b 141 511 165 551 142 568 b 120 585 86 561 71 545 b 60 533 50 517 42 502 b 42 501 41 500 41 498 b 38 505 36 510 35 514 b 28 529 20 543 7 554 b -7 565 -30 551 -31 535 b -34 490 -5 457 23 425 b 24 413 45 408 57 418 z"},"y":{"x_min":0,"x_max":451,"ha":451,"o":"m 454 231 b 421 193 384 159 345 127 b 345 201 342 275 342 349 b 342 377 305 382 284 376 b 258 369 234 348 233 320 b 233 317 233 314 233 311 b 223 268 215 224 202 181 b 195 157 185 133 173 111 b 166 98 147 59 128 66 b 112 72 105 98 101 112 b 94 135 92 159 90 183 b 87 239 93 295 99 351 b 105 416 3 393 -7 345 b -22 276 -22 199 -7 131 b 5 74 40 -3 111 13 b 168 27 205 89 225 139 b 229 146 231 154 234 162 b 235 122 236 83 236 44 b 211 26 186 8 162 -11 b 80 -72 -19 -138 -66 -232 b -93 -283 -100 -352 -79 -407 b -56 -468 0 -503 64 -501 b 227 -498 294 -330 321 -194 b 339 -101 344 -7 345 88 b 394 127 441 170 482 217 b 500 237 467 245 454 231 z m 233 -111 b 228 -180 217 -250 198 -317 b 183 -371 157 -432 102 -457 b 40 -486 -23 -441 -42 -380 b -58 -329 -47 -267 -19 -222 b 32 -140 121 -81 197 -24 b 210 -14 223 -5 236 5 b 236 -34 235 -72 233 -111 z"},"@":{"x_min":0,"x_max":841,"ha":841,"o":"m 714 572 b 580 707 355 664 219 555 b 86 450 13 276 69 109 b 136 -93 385 -139 564 -74 b 575 -70 590 -61 588 -48 b 587 -35 571 -31 561 -35 b 484 -61 400 -76 319 -56 b 252 -39 188 1 150 59 b 68 182 113 344 200 452 b 286 558 440 629 573 571 b 639 542 685 485 699 415 b 712 346 709 268 680 204 b 667 175 647 140 617 125 b 588 111 557 127 537 148 b 473 211 499 313 507 390 b 509 407 500 416 488 418 b 464 463 390 446 354 429 b 295 401 243 337 234 272 b 230 241 234 203 261 183 b 292 160 338 171 367 193 b 382 205 395 220 406 236 b 406 233 405 230 405 228 b 401 182 412 136 440 99 b 502 18 611 24 683 88 b 751 149 783 234 790 324 b 796 412 778 507 714 572 z m 439 401 b 407 365 379 325 350 285 b 343 276 336 266 329 256 b 328 254 326 253 325 251 b 325 251 325 252 325 252 b 321 261 320 272 321 281 b 324 314 346 349 371 370 b 385 383 422 414 444 406 b 442 405 441 403 439 401 z"},".":{"x_min":0,"x_max":167,"ha":167,"o":"m 114 21 b 107 39 79 28 71 18 b 58 4 52 -18 50 -37 b 46 -74 108 -62 112 -33 b 115 -17 120 5 114 21 z"},"p":{"x_min":0,"x_max":520,"ha":520,"o":"m 547 250 b 511 253 474 241 440 223 b 435 244 428 265 418 284 b 392 332 324 377 272 338 b 222 301 198 225 180 169 b 142 52 124 -69 112 -190 b 110 -177 109 -164 107 -151 b 101 -97 98 -42 96 12 b 92 119 102 224 113 330 b 120 400 10 376 -1 323 b -26 207 -30 85 -23 -34 b -20 -91 -13 -148 -3 -205 b 2 -234 9 -262 17 -291 b 24 -319 28 -348 56 -363 b 78 -375 119 -356 132 -333 b 134 -330 136 -327 137 -324 b 147 -211 158 -98 179 14 b 190 70 204 126 222 180 b 231 205 240 230 252 254 b 261 272 282 322 308 319 b 332 317 341 275 346 257 b 351 232 352 207 352 182 b 352 177 352 172 352 168 b 308 135 267 95 234 52 b 199 6 166 -55 197 -111 b 211 -138 243 -144 272 -140 b 313 -134 348 -109 375 -78 b 416 -30 440 33 446 96 b 448 126 449 158 446 190 b 471 203 500 219 529 217 b 539 216 551 220 556 230 b 560 238 557 249 547 250 z m 335 41 b 324 3 304 -38 274 -65 b 263 -76 248 -74 239 -60 b 224 -36 243 -1 256 20 b 281 60 314 95 350 126 b 348 97 343 69 335 41 z"},"X":{"x_min":0,"x_max":1471,"ha":1471,"o":"m 1365 -297 b 1348 -290 1318 -318 1339 -326 b 1420 -358 1476 -437 1430 -521 b 1390 -597 1306 -625 1224 -626 b 1055 -629 923 -499 835 -368 b 747 -236 685 -87 638 64 b 640 69 642 74 644 79 b 725 267 813 460 936 624 b 998 706 1072 789 1163 841 b 1206 865 1255 885 1305 885 b 1353 884 1408 853 1415 802 b 1419 773 1468 788 1470 811 b 1482 914 1380 958 1292 949 b 1194 940 1102 891 1027 829 b 870 701 763 518 677 338 b 651 285 627 232 605 178 b 585 252 568 327 552 401 b 532 490 517 580 490 668 b 463 756 418 846 341 901 b 263 958 171 979 79 942 b 62 935 43 912 52 892 b 62 871 91 877 108 883 b 180 911 264 869 315 819 b 381 754 407 661 423 572 b 441 477 452 381 469 286 b 486 189 508 93 535 -1 b 507 -75 479 -149 441 -218 b 418 -260 391 -305 348 -329 b 304 -354 256 -334 225 -298 b 193 -260 182 -208 176 -160 b 169 -109 168 -58 170 -7 b 181 223 264 444 267 674 b 267 693 232 682 232 665 b 229 457 160 258 138 53 b 128 -42 125 -143 150 -236 b 171 -314 235 -390 324 -370 b 366 -360 398 -332 427 -302 b 461 -268 491 -228 517 -187 b 534 -158 550 -129 565 -98 b 617 -247 690 -392 796 -507 b 913 -635 1099 -729 1275 -677 b 1363 -651 1451 -593 1482 -503 b 1513 -411 1449 -330 1365 -297 z"},"*":{"x_min":0,"x_max":282,"ha":282,"o":"m 216 573 b 205 572 193 571 181 571 b 195 585 209 600 222 616 b 238 635 207 642 195 628 b 185 617 175 605 164 595 b 164 610 164 626 164 641 b 164 659 131 648 130 632 b 130 621 130 610 129 599 b 120 608 111 618 101 628 b 88 641 55 619 69 604 b 80 593 91 582 102 571 b 90 570 79 569 67 567 b 45 563 43 533 69 537 b 83 540 96 541 110 541 b 96 526 82 510 69 494 b 53 472 86 464 98 480 b 108 493 118 505 129 517 b 129 497 129 477 129 458 b 130 438 167 450 167 468 b 166 480 166 493 166 505 b 171 499 177 493 183 487 b 195 474 229 496 214 511 b 205 521 196 530 187 540 b 194 540 202 541 209 542 b 218 543 230 549 232 559 b 233 568 226 575 216 573 z"},"Y":{"x_min":0,"x_max":1513,"ha":1513,"o":"m 1691 -168 b 1604 -141 1512 -132 1420 -137 b 1429 -12 1430 114 1422 240 b 1417 310 1409 379 1398 448 b 1416 547 1422 654 1390 748 b 1376 789 1353 842 1302 814 b 1249 785 1268 708 1274 660 b 1289 540 1299 418 1304 296 b 1292 258 1277 221 1261 185 b 1236 130 1206 76 1167 28 b 1136 -11 1095 -57 1043 -69 b 943 -91 881 47 859 123 b 826 241 831 366 828 488 b 826 551 822 614 812 676 b 803 730 787 794 755 840 b 690 931 586 968 477 951 b 369 934 274 876 199 798 b 126 721 63 614 52 507 b 40 402 90 306 195 276 b 296 247 403 281 488 337 b 533 367 575 406 608 449 b 623 468 625 493 598 502 b 574 509 541 495 530 472 b 486 384 397 322 298 318 b 254 316 207 326 172 353 b 130 385 111 435 110 486 b 108 593 160 697 229 776 b 298 853 394 914 501 914 b 551 914 599 896 633 858 b 667 822 685 766 694 717 b 716 600 707 479 706 360 b 705 243 710 122 762 15 b 805 -76 903 -155 1008 -142 b 1120 -129 1204 -25 1258 66 b 1276 95 1293 126 1307 158 b 1308 63 1306 -32 1300 -127 b 1300 -135 1299 -143 1299 -151 b 1178 -172 1059 -215 953 -267 b 851 -317 751 -384 713 -496 b 679 -597 729 -691 807 -755 b 896 -827 1028 -810 1124 -760 b 1229 -706 1307 -612 1350 -503 b 1393 -397 1409 -284 1418 -171 b 1418 -170 1418 -169 1418 -168 b 1439 -167 1460 -167 1481 -167 b 1544 -168 1607 -177 1666 -196 b 1683 -201 1712 -174 1691 -168 z m 1326 780 b 1327 788 1327 779 1329 774 b 1332 765 1337 756 1340 747 b 1353 714 1359 679 1361 644 b 1361 644 1361 644 1361 644 b 1353 674 1347 704 1337 734 b 1332 748 1323 765 1326 780 z m 1249 -455 b 1220 -545 1170 -635 1089 -688 b 1050 -714 1003 -729 956 -729 b 910 -729 856 -716 819 -688 b 729 -618 728 -498 798 -412 b 835 -366 886 -333 938 -305 b 993 -276 1051 -252 1110 -231 b 1171 -210 1233 -194 1297 -182 b 1290 -274 1277 -367 1249 -455 z"},"c":{"x_min":0,"x_max":331,"ha":331,"o":"m 331 242 b 303 176 272 108 224 54 b 204 31 172 -3 140 -4 b 109 -4 97 33 91 58 b 75 125 83 198 109 262 b 119 288 131 314 149 334 b 158 345 170 360 184 348 b 198 336 196 309 196 293 b 196 271 235 285 237 304 b 238 335 236 368 208 388 b 179 408 137 398 107 383 b 32 346 -12 262 -26 182 b -39 108 -39 2 32 -44 b 99 -87 185 -30 234 17 b 296 77 337 160 366 241 b 372 259 336 256 331 242 z"},"!":{"x_min":0,"x_max":224,"ha":224,"o":"m 174 48 b 165 172 154 295 148 419 b 145 480 142 540 140 601 b 138 639 141 725 95 739 b 85 742 72 734 68 725 b 67 725 67 725 67 725 b 66 723 65 721 65 718 b 53 668 55 611 53 559 b 50 498 50 438 50 378 b 51 258 56 139 69 20 b 75 -36 177 -1 174 48 z m 163 -58 b 151 -37 122 -49 109 -62 b 91 -79 91 -110 97 -133 b 102 -153 122 -156 140 -149 b 159 -143 173 -127 168 -107 b 163 -92 171 -71 163 -58 z"},"/":{"x_min":0,"x_max":581,"ha":581,"o":"m 503 735 b 476 740 447 724 434 701 b 391 629 354 552 317 477 b 282 404 247 331 214 257 b 181 183 150 108 120 33 b 90 -42 57 -121 50 -202 b 47 -233 89 -221 100 -204 b 145 -135 176 -57 209 19 b 242 95 275 170 310 246 b 343 320 378 393 414 466 b 450 540 491 612 527 686 b 537 708 528 731 503 735 z"},"[":{"x_min":0,"x_max":354,"ha":354,"o":"m 259 -157 b 246 -161 226 -173 213 -164 b 201 -157 195 -137 191 -125 b 177 -84 173 -38 171 5 b 165 100 163 196 158 291 b 153 388 149 485 147 582 b 146 630 145 678 145 725 b 144 746 141 767 146 787 b 148 797 152 802 156 810 b 157 810 157 811 158 812 b 165 813 172 813 179 810 b 193 804 222 826 202 836 b 173 851 133 846 108 825 b 79 801 73 762 67 727 b 52 633 49 535 50 439 b 52 342 56 244 59 147 b 63 56 59 -38 79 -128 b 88 -170 101 -214 140 -236 b 187 -263 246 -240 286 -212 b 321 -188 299 -145 259 -157 z"},"6":{"x_min":0,"x_max":498,"ha":498,"o":"m 110 -31 b 146 -85 205 -128 273 -125 b 399 -121 477 26 437 140 b 414 204 348 232 284 228 b 235 224 188 203 152 170 b 140 266 145 366 180 457 b 197 501 222 546 260 573 b 296 599 389 619 398 554 b 401 534 436 546 434 563 b 429 620 358 639 310 638 b 247 637 188 594 150 547 b 64 442 41 299 53 168 b 58 101 72 26 110 -31 z m 264 193 b 311 199 363 183 387 140 b 424 73 388 -106 284 -64 b 208 -33 174 52 159 129 b 185 163 221 186 264 193 z"},"r":{"x_min":0,"x_max":394,"ha":394,"o":"m 391 248 b 362 163 336 75 292 -4 b 282 -22 271 -39 258 -54 b 248 -65 228 -92 212 -93 b 205 -94 207 -95 206 -85 b 204 -76 204 -66 203 -57 b 202 -34 203 -10 206 12 b 210 60 217 107 227 153 b 236 196 245 242 199 266 b 163 285 119 280 81 289 b 79 289 78 289 76 290 b 96 307 113 329 122 352 b 136 385 130 430 91 442 b 47 455 -1 418 -26 385 b -60 340 -83 286 -39 240 b -22 223 1 210 24 204 b 55 196 89 200 119 190 b 137 184 124 157 121 142 b 116 111 111 80 108 49 b 103 -4 95 -89 141 -127 b 182 -161 238 -134 269 -100 b 310 -56 340 1 363 56 b 389 119 412 184 429 250 b 435 273 397 264 391 248 z m 47 303 b 29 314 15 331 13 352 b 12 373 25 392 42 403 b 66 418 95 407 94 377 b 94 350 71 320 47 303 z"},"2":{"x_min":0,"x_max":526,"ha":526,"o":"m 122 -133 b 167 -127 208 -103 243 -73 b 256 -76 268 -79 281 -83 b 337 -98 393 -111 451 -110 b 474 -110 489 -75 459 -75 b 396 -76 335 -58 274 -43 b 278 -38 282 -34 285 -30 b 374 72 418 211 427 344 b 431 410 431 480 405 542 b 382 598 335 650 272 655 b 146 663 23 472 131 378 b 145 366 178 388 162 402 b 85 470 161 637 265 620 b 318 611 332 545 338 499 b 344 450 342 400 337 350 b 327 251 303 153 253 66 b 234 34 214 2 187 -24 b 149 -19 109 -21 77 -45 b 59 -58 45 -79 52 -102 b 60 -133 96 -136 122 -133 z m 117 -58 b 128 -55 139 -55 151 -55 b 144 -60 137 -64 130 -68 b 124 -71 109 -82 103 -81 b 86 -77 109 -61 117 -58 z"},"{":{"x_min":0,"x_max":469,"ha":469,"o":"m 392 -170 b 343 -192 307 -124 297 -87 b 283 -30 282 31 275 89 b 267 146 265 209 246 264 b 238 289 220 311 196 325 b 189 329 181 332 173 334 b 218 397 259 464 288 536 b 306 582 320 627 328 675 b 332 701 336 727 341 752 b 345 765 357 827 379 801 b 388 790 417 807 409 820 b 382 862 332 827 311 798 b 274 747 261 683 241 624 b 202 509 137 407 61 314 b 49 299 42 270 66 262 b 82 257 97 256 113 258 b 126 259 131 259 141 249 b 161 228 162 194 166 167 b 175 100 183 32 194 -35 b 203 -88 217 -152 263 -187 b 301 -216 363 -224 406 -199 b 429 -185 418 -158 392 -170 z"},"9":{"x_min":0,"x_max":573,"ha":573,"o":"m 388 579 b 381 577 376 573 371 569 b 346 601 300 617 260 610 b 199 598 150 551 113 503 b 73 451 44 386 51 319 b 58 255 109 201 177 217 b 235 232 270 289 299 338 b 330 392 351 451 377 508 b 379 513 388 541 393 543 b 396 540 399 536 400 531 b 404 524 406 516 408 508 b 416 478 419 447 422 417 b 429 347 428 277 419 208 b 413 169 405 130 393 93 b 385 64 376 32 359 6 b 345 -14 325 -22 300 -21 b 266 -20 242 0 217 22 b 197 39 151 16 162 -12 b 182 -66 248 -102 304 -100 b 372 -99 430 -55 461 4 b 491 59 505 126 514 187 b 524 254 527 324 515 390 b 503 448 487 515 443 557 b 427 572 411 586 388 579 z m 265 359 b 249 333 231 304 206 287 b 199 282 188 274 179 278 b 167 282 159 303 156 314 b 133 381 164 446 205 498 b 222 519 241 546 267 557 b 296 570 326 568 343 539 b 344 537 346 536 347 535 b 345 530 344 526 342 522 b 317 467 296 410 265 359 z"}," ":{"x_min":0,"x_max":335,"ha":335,"o":""},"I":{"x_min":0,"x_max":899,"ha":899,"o":"m 791 146 b 796 255 797 364 788 473 b 772 649 728 873 532 929 b 372 974 198 876 114 741 b 57 651 17 517 88 423 b 214 254 477 467 497 621 b 500 641 466 635 464 619 b 445 489 220 295 117 452 b 62 537 97 651 145 731 b 178 786 226 832 283 863 b 357 904 452 930 527 881 b 669 789 676 585 681 435 b 685 328 682 221 675 115 b 668 13 653 -89 653 -191 b 653 -191 653 -191 653 -191 b 590 -183 505 -179 476 -249 b 466 -271 502 -271 509 -254 b 527 -213 575 -214 613 -218 b 631 -220 648 -223 666 -225 b 676 -232 691 -233 702 -232 b 711 -233 720 -235 729 -237 b 793 -251 864 -276 921 -228 b 940 -212 916 -195 900 -209 b 864 -238 817 -225 777 -215 b 767 -213 757 -210 748 -208 b 753 -202 758 -194 760 -186 b 781 -77 786 36 791 146 z"},"H":{"x_min":0,"x_max":1592,"ha":1592,"o":"m 1164 359 b 1081 361 998 377 916 390 b 875 397 834 403 792 407 b 791 429 789 451 788 473 b 772 649 728 873 532 929 b 372 974 198 876 114 741 b 57 651 17 517 88 423 b 214 254 477 467 497 621 b 500 641 466 635 464 619 b 445 489 220 295 117 452 b 62 537 97 651 145 731 b 178 786 226 832 283 863 b 357 904 452 930 527 881 b 669 789 676 585 681 435 b 681 427 682 419 682 411 b 608 408 536 393 471 355 b 404 315 350 250 354 169 b 355 147 395 161 395 180 b 396 280 491 330 575 352 b 610 361 646 366 683 369 b 683 284 680 199 675 115 b 668 9 652 -97 653 -203 b 653 -228 684 -235 703 -231 b 726 -228 755 -211 759 -186 b 781 -77 786 36 791 146 b 795 219 796 293 794 367 b 812 365 831 363 849 361 b 943 348 1037 330 1133 326 b 1182 325 1231 326 1279 332 b 1209 287 1157 206 1126 130 b 1074 5 1056 -161 1169 -260 b 1213 -298 1273 -317 1330 -301 b 1397 -283 1438 -225 1461 -163 b 1490 -89 1497 -5 1501 74 b 1504 161 1499 248 1493 335 b 1478 528 1472 722 1460 916 b 1456 980 1340 940 1341 884 b 1343 737 1350 591 1362 444 b 1364 421 1366 398 1368 374 b 1301 362 1233 357 1164 359 z m 1379 -193 b 1374 -217 1369 -247 1347 -262 b 1325 -277 1292 -276 1266 -269 b 1136 -236 1108 -73 1134 38 b 1162 160 1237 315 1372 336 b 1383 227 1396 118 1398 9 b 1399 -59 1392 -126 1379 -193 z"},"4":{"x_min":0,"x_max":579,"ha":579,"o":"m 93 137 b 128 133 162 146 190 165 b 223 188 245 223 260 261 b 311 267 362 268 413 279 b 413 268 414 256 414 244 b 418 178 424 113 432 47 b 436 15 441 -17 446 -48 b 451 -76 453 -117 475 -137 b 483 -144 499 -140 505 -132 b 525 -105 527 -73 528 -41 b 530 -7 528 28 527 63 b 523 129 520 196 518 262 b 513 396 518 530 515 664 b 515 714 420 687 416 647 b 405 536 406 423 411 311 b 365 301 318 299 271 294 b 279 319 284 344 289 368 b 308 460 319 552 307 645 b 305 665 269 653 270 635 b 275 553 272 468 251 388 b 242 353 231 319 217 286 b 158 274 81 247 54 189 b 40 159 66 140 93 137 z m 137 227 b 157 238 179 246 202 251 b 189 225 172 199 147 184 b 137 177 104 163 93 178 b 83 192 130 222 137 227 z"},"D":{"x_min":0,"x_max":1597,"ha":1597,"o":"m 88 423 b 214 254 477 467 497 621 b 500 641 466 635 464 619 b 445 489 220 295 117 452 b 62 537 97 651 145 731 b 178 786 226 832 283 863 b 357 904 452 930 527 881 b 669 789 676 585 681 435 b 685 328 682 221 675 115 b 668 9 652 -97 653 -203 b 653 -228 684 -235 703 -231 b 726 -228 755 -211 760 -186 b 765 -159 769 -132 773 -105 b 829 126 854 368 954 585 b 980 640 1009 697 1049 743 b 1088 787 1154 832 1216 807 b 1268 786 1299 727 1320 678 b 1326 666 1330 654 1334 643 b 1309 628 1285 612 1262 595 b 1154 515 1063 408 990 296 b 952 237 919 174 892 108 b 867 43 843 -26 839 -96 b 834 -164 852 -232 901 -280 b 949 -327 1019 -342 1083 -332 b 1233 -309 1342 -195 1403 -62 b 1467 75 1499 228 1492 379 b 1488 470 1471 568 1432 654 b 1438 656 1444 658 1450 660 b 1470 666 1527 687 1537 658 b 1543 639 1582 657 1575 677 b 1557 730 1464 698 1429 686 b 1426 684 1422 683 1418 682 b 1399 717 1376 750 1347 778 b 1303 823 1244 852 1180 847 b 1114 842 1057 803 1015 754 b 927 650 878 510 843 381 b 822 308 807 235 792 161 b 796 265 797 369 788 473 b 772 649 728 873 532 929 b 372 974 198 876 114 741 b 57 651 17 517 88 423 z m 1348 112 b 1321 3 1279 -118 1193 -195 b 1156 -229 1111 -253 1060 -258 b 1003 -264 936 -248 907 -195 b 873 -135 882 -65 898 -1 b 913 60 935 118 962 174 b 1021 296 1105 407 1202 502 b 1245 544 1292 583 1344 613 b 1354 576 1361 538 1366 500 b 1384 370 1380 240 1348 112 z"},"^":{"x_min":0,"x_max":350,"ha":350,"o":"m 296 484 b 271 538 248 654 169 646 b 127 642 95 608 75 574 b 59 548 44 510 53 479 b 56 467 78 472 84 478 b 102 494 114 515 127 535 b 133 544 139 553 145 561 b 148 564 151 568 154 571 b 167 557 174 532 179 517 b 188 491 194 464 208 441 b 231 400 317 441 296 484 z m 161 577 b 165 581 166 578 161 577 z"},"0":{"x_min":0,"x_max":532,"ha":532,"o":"m 95 -24 b 129 -78 187 -114 252 -110 b 324 -105 375 -52 411 6 b 487 130 502 283 457 421 b 439 478 410 535 361 570 b 316 603 254 632 201 600 b 144 565 111 490 113 422 b 102 417 91 409 87 399 b 58 327 48 248 50 171 b 52 106 61 32 95 -24 z m 211 570 b 262 610 309 540 331 501 b 353 462 366 419 375 375 b 397 268 393 157 344 58 b 330 31 306 -24 272 -29 b 233 -35 197 5 182 35 b 155 87 150 149 149 206 b 148 243 152 279 158 314 b 174 299 195 288 221 282 b 238 278 259 304 237 310 b 203 319 181 340 167 367 b 169 377 171 386 173 395 b 177 414 167 424 153 427 b 151 481 172 539 211 570 z"},"F":{"x_min":0,"x_max":878,"ha":878,"o":"m 290 893 b 228 873 174 834 133 784 b 92 735 56 673 51 608 b 45 546 69 483 113 438 b 216 335 384 355 471 467 b 503 508 424 519 414 476 b 399 417 322 399 270 404 b 204 411 142 450 111 509 b 44 633 141 789 255 846 b 354 896 462 880 565 852 b 553 842 544 827 543 810 b 542 675 559 542 572 408 b 540 403 508 398 476 392 b 453 388 452 358 479 362 b 511 367 543 372 575 377 b 576 365 577 353 578 340 b 590 195 602 38 563 -104 b 530 -223 434 -350 296 -330 b 158 -310 102 -158 132 -35 b 150 38 193 106 245 161 b 271 187 302 211 337 225 b 356 232 384 240 403 228 b 416 219 418 197 415 182 b 407 142 475 156 484 187 b 494 225 467 250 433 263 b 399 276 360 268 327 255 b 256 227 202 170 159 109 b 77 -10 43 -180 149 -296 b 256 -413 445 -371 547 -271 b 675 -147 698 40 702 209 b 703 270 701 332 698 393 b 748 399 799 404 850 410 b 870 412 886 445 858 443 b 804 439 750 433 695 426 b 686 559 670 692 658 825 b 664 823 670 821 676 819 b 813 777 958 737 1102 765 b 1166 777 1251 796 1292 852 b 1321 892 1312 958 1257 969 b 1239 973 1215 943 1240 937 b 1267 931 1272 893 1261 872 b 1246 842 1207 831 1176 823 b 1104 804 1025 809 952 820 b 875 831 801 849 725 866 b 649 883 573 897 496 906 b 427 915 356 915 290 893 z"},"`":{"x_min":0,"x_max":180,"ha":180,"o":"m 130 589 b 123 622 107 649 86 675 b 76 687 42 669 52 654 b 66 630 75 604 82 577 b 88 551 135 567 130 589 z"},"k":{"x_min":0,"x_max":512,"ha":512,"o":"m 505 200 b 486 149 467 96 440 48 b 429 28 411 -8 384 -4 b 363 -2 354 25 345 41 b 322 82 311 126 291 167 b 279 193 261 211 241 224 b 286 226 332 242 358 279 b 373 300 380 331 362 352 b 342 376 303 370 277 360 b 179 325 130 235 104 139 b 99 188 95 238 95 288 b 95 293 95 299 95 304 b 184 346 263 411 322 489 b 377 561 427 680 340 749 b 259 813 142 769 85 696 b 11 601 -3 476 -8 360 b -11 293 -11 226 -4 160 b -1 128 4 97 12 66 b 16 50 21 34 27 19 b 33 1 43 -12 54 -28 b 70 -52 116 -33 115 -5 b 115 -2 114 0 114 3 b 114 3 115 4 115 4 b 124 76 136 152 168 217 b 184 199 185 170 191 148 b 199 118 207 87 216 58 b 225 32 237 6 257 -13 b 280 -35 308 -40 339 -43 b 396 -48 436 -23 466 24 b 500 78 520 142 543 202 b 551 223 512 216 505 200 z m 119 582 b 133 649 182 755 268 736 b 314 727 341 689 345 644 b 348 597 326 553 299 515 b 247 440 176 382 96 340 b 97 421 102 504 119 582 z m 197 263 b 202 270 208 277 214 283 b 230 300 248 316 269 326 b 291 336 338 348 333 309 b 327 252 240 252 197 263 z"},"u":{"x_min":0,"x_max":503,"ha":503,"o":"m 498 243 b 485 197 472 150 452 105 b 443 83 431 62 418 42 b 412 33 400 14 387 16 b 379 18 375 29 372 36 b 364 55 364 76 363 96 b 361 123 361 149 361 176 b 362 229 372 281 375 334 b 377 360 341 366 323 363 b 297 359 270 342 263 315 b 262 310 261 305 260 299 b 244 256 230 212 214 170 b 203 142 191 115 177 88 b 169 73 149 27 128 31 b 110 35 105 70 101 84 b 95 111 93 138 93 166 b 91 226 98 286 101 346 b 102 372 68 378 50 375 b 26 371 -1 354 -7 329 b -23 257 -27 175 -13 102 b -1 37 36 -42 117 -16 b 180 5 212 70 236 126 b 240 136 243 145 247 154 b 247 137 249 121 251 104 b 257 47 271 -30 342 -36 b 404 -41 447 17 473 65 b 503 121 519 184 535 246 b 541 267 503 260 498 243 z"},"]":{"x_min":0,"x_max":295,"ha":295,"o":"m 243 200 b 236 369 222 539 198 706 b 192 745 187 796 161 827 b 137 857 98 855 65 843 b 46 836 43 809 68 815 b 79 818 97 826 104 810 b 106 806 105 793 105 788 b 106 766 108 743 110 721 b 114 676 114 632 117 587 b 121 498 127 410 133 322 b 140 234 145 147 143 59 b 142 15 138 -29 132 -73 b 129 -94 127 -115 121 -135 b 119 -142 117 -150 113 -156 b 110 -160 99 -166 109 -163 b 90 -169 67 -183 66 -206 b 65 -225 84 -239 103 -236 b 145 -229 180 -208 202 -171 b 223 -136 228 -92 234 -53 b 246 31 247 116 243 200 z"},"U":{"x_min":0,"x_max":1600,"ha":1600,"o":"m 1722 -431 b 1692 -455 1645 -416 1625 -395 b 1595 -361 1576 -317 1557 -276 b 1537 -233 1521 -188 1509 -143 b 1465 24 1464 198 1468 370 b 1472 384 1476 398 1480 411 b 1498 484 1510 558 1514 632 b 1517 670 1519 709 1515 747 b 1512 783 1501 818 1488 851 b 1479 875 1443 855 1434 842 b 1400 789 1390 728 1381 666 b 1372 600 1366 533 1359 466 b 1350 368 1345 268 1346 168 b 1318 114 1286 62 1250 13 b 1210 -40 1154 -104 1083 -113 b 1020 -122 973 -71 949 -19 b 886 118 918 276 935 420 b 944 495 952 573 945 649 b 940 717 923 788 875 839 b 831 886 759 901 697 899 b 627 896 558 869 496 840 b 381 785 277 704 196 606 b 119 513 29 380 54 253 b 83 112 250 86 367 122 b 494 161 597 249 658 367 b 672 395 684 424 694 454 b 707 498 623 488 614 450 b 585 333 505 237 400 179 b 338 145 257 130 190 161 b 134 188 95 246 95 309 b 96 378 131 445 166 502 b 199 555 237 603 280 647 b 369 736 481 809 601 847 b 669 868 745 876 798 819 b 843 771 840 695 839 634 b 836 482 792 335 782 184 b 777 113 779 33 807 -33 b 834 -94 885 -142 949 -162 b 1012 -182 1082 -171 1140 -140 b 1202 -108 1247 -55 1288 0 b 1309 30 1329 61 1348 93 b 1349 84 1349 74 1350 65 b 1356 -50 1374 -167 1417 -275 b 1455 -370 1528 -501 1645 -504 b 1702 -506 1763 -477 1782 -420 b 1800 -367 1770 -310 1716 -293 b 1706 -290 1695 -293 1688 -301 b 1683 -308 1680 -320 1690 -323 b 1732 -337 1764 -397 1722 -431 z"},"o":{"x_min":0,"x_max":261,"ha":261,"o":"m 264 248 b 248 229 227 211 203 197 b 203 215 202 232 199 248 b 193 288 179 333 143 357 b 109 379 65 375 32 352 b -11 321 -28 265 -14 218 b -16 214 -18 209 -19 205 b -26 158 -31 98 -6 55 b 18 15 67 5 108 21 b 165 44 193 102 201 162 b 237 180 270 206 294 234 b 311 255 277 264 264 248 z m 143 100 b 136 86 125 65 105 67 b 92 68 85 78 81 90 b 75 106 73 124 74 142 b 101 136 129 138 157 146 b 154 130 149 115 143 100 z m 161 179 b 133 170 104 169 77 179 b 78 190 80 201 81 211 b 84 246 52 254 23 245 b 21 255 21 265 23 275 b 31 318 72 357 114 327 b 147 303 157 256 160 219 b 161 206 162 192 161 179 z"},"N":{"x_min":0,"x_max":1398,"ha":1398,"o":"m 1411 -291 b 1399 -280 1393 -261 1388 -247 b 1382 -227 1374 -208 1368 -188 b 1342 -112 1325 -34 1314 46 b 1293 205 1296 367 1275 526 b 1266 595 1219 917 1091 797 b 1036 746 999 679 969 610 b 937 536 910 460 885 383 b 848 272 818 159 786 46 b 788 80 789 113 791 146 b 796 255 797 364 788 473 b 772 649 728 873 532 929 b 372 974 198 876 114 741 b 57 651 17 517 88 423 b 214 254 477 467 497 621 b 500 641 466 635 464 619 b 445 489 220 295 117 452 b 62 537 97 651 145 731 b 178 786 226 832 283 863 b 357 904 452 930 527 881 b 669 789 676 585 681 435 b 685 328 682 221 675 115 b 668 9 652 -97 653 -203 b 653 -228 684 -235 703 -231 b 726 -228 755 -211 759 -186 b 762 -171 765 -156 767 -142 b 816 16 856 175 905 332 b 932 416 960 500 994 582 b 1024 652 1058 724 1114 778 b 1122 785 1129 794 1138 789 b 1145 785 1148 774 1150 767 b 1154 749 1154 730 1155 712 b 1159 670 1162 629 1165 587 b 1172 504 1174 420 1175 337 b 1178 174 1184 6 1236 -150 b 1260 -220 1304 -334 1393 -340 b 1426 -342 1460 -319 1467 -286 b 1475 -250 1452 -219 1426 -196 b 1412 -184 1378 -206 1394 -221 b 1406 -232 1418 -245 1423 -260 b 1428 -273 1429 -305 1411 -291 z"},"+":{"x_min":0,"x_max":343,"ha":343,"o":"m 277 258 b 259 258 240 258 221 257 b 224 295 227 332 228 370 b 229 395 196 401 179 398 b 156 394 129 378 123 353 b 116 318 113 281 112 245 b 97 242 82 238 67 234 b 45 227 43 196 69 203 b 83 208 98 211 112 214 b 112 209 112 204 112 200 b 113 152 113 96 136 53 b 153 22 206 46 213 74 b 224 122 218 174 220 224 b 220 224 220 224 220 224 b 236 225 253 225 269 226 b 291 226 305 259 277 258 z"},"G":{"x_min":0,"x_max":1107,"ha":1107,"o":"m 57 160 b 80 64 168 18 263 33 b 310 40 352 63 393 88 b 433 114 472 142 507 174 b 543 206 576 239 608 274 b 639 308 667 346 704 374 b 739 400 793 418 831 387 b 858 365 872 327 882 293 b 841 272 802 244 766 218 b 697 168 634 111 578 47 b 523 -17 475 -87 443 -165 b 413 -235 393 -331 464 -384 b 540 -442 656 -425 737 -388 b 824 -348 892 -275 937 -191 b 1015 -44 1029 135 969 290 b 977 291 984 292 992 293 b 1014 294 1029 328 1000 327 b 985 326 971 324 957 321 b 952 331 947 340 942 350 b 923 386 896 416 856 430 b 819 442 776 440 739 427 b 655 397 602 317 541 256 b 507 222 472 191 433 163 b 395 136 354 108 308 101 b 270 95 230 101 202 130 b 178 155 170 193 168 227 b 163 317 203 405 244 483 b 258 508 272 533 287 558 b 319 533 357 516 399 508 b 490 490 584 517 665 556 b 742 592 811 645 866 709 b 914 767 981 858 940 937 b 896 1022 793 1025 711 1011 b 618 996 528 933 456 876 b 393 825 333 768 281 705 b 274 732 271 760 272 788 b 274 835 289 883 309 926 b 319 949 308 969 281 971 b 255 972 230 955 221 930 b 188 841 176 740 215 651 b 218 645 221 639 224 633 b 180 573 141 509 110 441 b 72 357 34 253 57 160 z m 781 -255 b 726 -312 638 -353 558 -331 b 471 -306 495 -203 520 -141 b 587 22 713 148 860 240 b 870 247 881 253 891 259 b 932 88 906 -125 781 -255 z m 390 699 b 448 767 513 827 585 879 b 621 905 659 928 700 944 b 747 962 795 978 846 961 b 894 944 919 902 908 852 b 898 808 869 767 841 732 b 787 666 716 613 637 578 b 559 543 445 516 369 573 b 352 585 338 600 325 615 b 346 644 367 672 390 699 z"},"q":{"x_min":0,"x_max":432,"ha":432,"o":"m 484 -113 b 469 -72 440 -36 404 -12 b 369 11 330 19 290 22 b 290 26 290 30 291 34 b 293 37 295 39 297 41 b 305 51 314 60 322 70 b 338 89 353 107 369 126 b 401 164 434 202 466 240 b 482 260 450 268 437 253 b 399 211 362 168 326 125 b 316 113 306 102 296 90 b 306 175 322 262 311 345 b 306 391 245 378 218 350 b 210 354 202 358 194 360 b 149 372 103 357 68 330 b -5 277 -48 174 -28 85 b -18 41 8 3 56 -3 b 97 -9 131 18 153 51 b 162 65 170 80 176 95 b 174 63 172 31 170 0 b 164 -102 167 -220 215 -313 b 237 -354 271 -392 319 -399 b 365 -405 407 -378 435 -344 b 488 -279 513 -194 484 -113 z m 196 274 b 179 229 167 183 152 138 b 142 109 131 80 113 55 b 104 43 98 49 89 60 b 82 70 77 83 74 95 b 63 151 79 208 104 258 b 113 276 126 300 147 304 b 165 308 183 301 198 289 b 197 284 197 279 196 274 z m 410 -316 b 400 -328 385 -342 369 -344 b 351 -347 342 -332 334 -319 b 315 -285 304 -248 298 -210 b 287 -145 285 -78 288 -13 b 316 -15 343 -22 367 -37 b 396 -54 419 -80 434 -110 b 467 -175 456 -260 410 -316 z"},"d":{"x_min":0,"x_max":597,"ha":597,"o":"m 598 241 b 577 186 553 131 523 80 b 499 41 455 -45 398 -26 b 354 -11 338 62 330 102 b 318 161 311 222 310 282 b 310 286 310 291 310 295 b 311 295 312 295 313 296 b 429 341 548 415 584 542 b 600 596 598 665 554 706 b 508 749 428 744 377 714 b 255 644 214 491 203 356 b 200 357 196 359 192 360 b 147 372 101 357 66 330 b -7 277 -50 174 -30 85 b -20 41 6 3 54 -3 b 95 -9 129 18 151 51 b 178 92 192 140 204 187 b 208 151 215 115 224 80 b 241 18 271 -58 339 -79 b 417 -105 487 -34 527 24 b 575 91 608 166 633 244 b 640 264 603 256 598 241 z m 324 466 b 333 520 345 580 376 626 b 400 663 449 700 495 688 b 552 672 558 603 548 555 b 524 436 415 371 310 328 b 312 374 316 420 324 466 z m 150 138 b 140 109 129 80 111 55 b 102 43 96 49 87 60 b 80 70 75 83 72 95 b 61 151 77 208 102 258 b 111 276 124 300 145 304 b 164 308 184 300 199 286 b 179 238 167 188 150 138 z"},"1":{"x_min":0,"x_max":446,"ha":446,"o":"m 87 476 b 102 510 123 539 146 566 b 165 589 213 643 243 607 b 255 592 249 565 248 547 b 246 528 245 509 243 490 b 240 452 235 414 231 376 b 214 218 197 60 191 -99 b 191 -103 192 -107 194 -111 b 169 -117 145 -123 121 -129 b 98 -134 97 -165 123 -159 b 203 -142 284 -111 367 -124 b 386 -127 411 -95 385 -91 b 355 -86 326 -87 298 -90 b 299 -87 300 -84 300 -81 b 309 16 312 113 316 210 b 320 302 326 396 319 489 b 315 551 300 664 213 649 b 173 642 144 613 119 583 b 93 552 69 519 52 482 b 41 459 79 459 87 476 z"},"5":{"x_min":0,"x_max":601,"ha":601,"o":"m 184 573 b 166 539 151 503 136 468 b 126 446 116 424 108 401 b 102 382 92 359 95 338 b 104 282 188 314 222 322 b 256 329 289 323 320 306 b 395 266 414 170 404 92 b 394 20 348 -58 265 -47 b 213 -40 179 -10 168 42 b 156 96 171 151 186 204 b 192 226 152 219 147 201 b 123 122 100 29 154 -44 b 203 -111 290 -120 362 -86 b 440 -49 491 30 501 115 b 512 199 495 295 427 353 b 394 381 352 400 309 406 b 283 409 258 408 232 404 b 222 402 213 400 203 397 b 205 404 207 410 209 415 b 216 435 224 454 232 474 b 247 511 261 549 269 589 b 341 604 517 638 511 582 b 508 558 549 565 550 584 b 559 672 397 643 349 635 b 323 631 297 625 271 619 b 263 643 215 628 203 608 b 203 607 202 607 202 606 b 165 601 104 594 86 634 b 79 651 44 634 51 617 b 72 570 131 567 184 573 z"}}}
